<svg width="144" height="34" viewBox="0 0 144 34" fill="none" xmlns="http://www.w3.org/2000/svg">
<path d="M28.0365 20.1359L49.5661 33.8521H0L14.2629 16.6825L19.133 25.4461C19.3403 25.8193 19.679 26.102 20.0832 26.2393L32.0847 30.3128C32.5165 30.4593 32.9889 30.4283 33.3978 30.2265C33.8068 30.0248 34.1188 29.6689 34.2653 29.2371C34.4118 28.8053 34.3808 28.3329 34.1791 27.924C33.9774 27.5151 33.6215 27.203 33.1896 27.0565L21.8162 23.1962L19.47 18.9748L23.7498 21.8082C24.0379 21.999 24.3768 22.0985 24.7224 22.0938C25.0679 22.0891 25.404 21.9804 25.6868 21.7818L28.0365 20.1359ZM54.9153 10.5471L51.3622 10.0061C50.9379 9.94126 50.5531 9.72007 50.2836 9.38599L48.828 7.58536L47.3036 17.9399C47.2476 18.3224 47.0643 18.6749 46.7832 18.9405L43.3825 22.1497C43.2183 22.3048 43.0252 22.4259 42.8141 22.5063C42.6031 22.5867 42.3783 22.6248 42.1525 22.6183C41.9268 22.6118 41.7046 22.5609 41.4985 22.4685C41.2924 22.3761 41.1065 22.244 40.9515 22.0798C40.7965 21.9156 40.6753 21.7225 40.5949 21.5114C40.5145 21.3004 40.4765 21.0756 40.483 20.8498C40.4895 20.6241 40.5404 20.4018 40.6328 20.1958C40.7251 19.9897 40.8572 19.8038 41.0214 19.6488L43.9889 16.8476L45.135 9.08913L35.231 20.6391L50.2458 30.2096H68.3392L54.9153 10.5471ZM28.1167 7.72289C28.8804 7.72312 29.6271 7.49687 30.2622 7.07276C30.8973 6.64865 31.3924 6.04572 31.6849 5.34022C31.9774 4.63472 32.0541 3.85833 31.9053 3.10924C31.7565 2.36015 31.389 1.672 30.8491 1.1318C30.3092 0.591611 29.6213 0.223639 28.8723 0.0744222C28.1233 -0.0747949 27.3469 0.00144378 26.6412 0.293498C25.9355 0.585552 25.3323 1.0803 24.9078 1.71519C24.4833 2.35008 24.2566 3.09658 24.2564 3.8603C24.257 4.88414 24.6638 5.86591 25.3876 6.59009C26.1113 7.31427 27.0929 7.72168 28.1167 7.72289Z" fill="#E52A2A"/>
<path d="M86.4134 11.1004L86.7459 9.74377H90.0445L89.1932 13.0423C89.1578 13.1931 89.0868 13.3305 88.9804 13.4547C88.8829 13.5699 88.7676 13.6675 88.6346 13.7473C88.5105 13.8271 88.373 13.8892 88.2223 13.9335C88.0715 13.9778 87.9252 14 87.7834 14L78.7123 14C78.464 14 78.2512 13.9424 78.0738 13.8271C77.8965 13.703 77.8078 13.5079 77.8078 13.2419C77.8078 13.1975 77.8389 13.0468 77.9009 12.7896C77.963 12.5236 78.0472 12.1955 78.1536 11.8054C78.2512 11.4152 78.362 10.9719 78.4862 10.4753C78.6192 9.97875 78.7566 9.47332 78.8985 8.95903C79.0403 8.43587 79.1778 7.92157 79.3108 7.41615C79.4527 6.90185 79.5812 6.43189 79.6965 6.00627C79.8207 5.58065 79.9226 5.21709 80.0024 4.91561C80.0911 4.60526 80.1487 4.39245 80.1753 4.27718C80.2197 4.12644 80.2906 3.99343 80.3882 3.87816C80.4857 3.76288 80.601 3.66534 80.734 3.58554C80.867 3.49687 81.0044 3.43036 81.1463 3.38603C81.297 3.34169 81.4433 3.31953 81.5852 3.31953L90.6563 3.31953C90.8957 3.31953 91.1041 3.37716 91.2814 3.49243C91.4677 3.60771 91.5608 3.79835 91.5608 4.06437L90.6696 7.49595L87.371 7.49595L87.7168 6.21908L82.9552 6.21908L81.6517 11.1004L86.4134 11.1004ZM93.1316 3.31953H96.4302L95.2996 7.49595L100.061 7.49595L101.192 3.31953H104.49L101.617 14H98.3189L99.2898 10.3955L94.5282 10.3955L93.5572 14H90.2586L93.1316 3.31953ZM105.556 4.27718C105.6 4.12644 105.671 3.99343 105.769 3.87816C105.866 3.76288 105.981 3.66534 106.114 3.58554C106.247 3.49687 106.385 3.43036 106.527 3.38603C106.678 3.34169 106.824 3.31953 106.966 3.31953L116.569 3.31953C116.808 3.31953 117.017 3.37716 117.194 3.49243C117.38 3.60771 117.473 3.79835 117.473 4.06437L115.106 13.0423C115.07 13.1931 115.004 13.3305 114.906 13.4547C114.809 13.5699 114.693 13.6675 114.56 13.7473C114.427 13.8271 114.286 13.8892 114.135 13.9335C113.993 13.9778 113.847 14 113.696 14H104.093C103.844 14 103.632 13.9424 103.454 13.8271C103.277 13.703 103.188 13.5079 103.188 13.2419L105.556 4.27718ZM112.326 11.1004L113.629 6.21908H108.336L107.032 11.1004H112.326ZM122.17 6.21908L118.14 6.21908L118.925 3.31953L130.284 3.31953L129.499 6.21908H125.482L123.394 14H120.082L122.17 6.21908ZM137.59 11.1004L139.678 3.31953L142.977 3.31953L140.37 13.0423C140.334 13.1842 140.263 13.3172 140.157 13.4414C140.059 13.5566 139.944 13.6586 139.811 13.7473C139.678 13.8271 139.536 13.8892 139.386 13.9335C139.244 13.9778 139.102 14 138.96 14L129.889 14C129.641 14 129.428 13.9379 129.25 13.8138C129.073 13.6896 128.984 13.4946 128.984 13.2286L131.618 3.31953L134.917 3.31953L132.828 11.1004L137.59 11.1004ZM83.7133 28.2709L82.2636 24.826L80.867 30H77.5684L80.4414 19.3195H83.7133L85.2695 23.7354L89.1666 19.3195H92.4652L89.5922 30H86.2937L87.6902 24.826L84.3784 28.2709H83.7133ZM93.528 20.2772C93.5723 20.1264 93.6433 19.9934 93.7408 19.8782C93.8384 19.7629 93.9536 19.6653 94.0866 19.5855C94.2197 19.4969 94.3571 19.4304 94.499 19.386C94.6497 19.3417 94.796 19.3195 94.9379 19.3195H104.009C104.248 19.3195 104.457 19.3772 104.634 19.4924C104.82 19.6077 104.913 19.7984 104.913 20.0644L102.28 30H98.9813L99.9523 26.3955H95.1906L94.2197 30H90.9211L93.528 20.2772ZM100.724 23.4959L101.07 22.2191H96.3079L95.962 23.4959H100.724ZM106.484 19.3195H109.783L112.935 25.3048L114.544 19.3195H117.843L114.97 30H111.711L108.519 24.0147L106.91 30H103.611L106.484 19.3195ZM119.174 19.3195L129.389 19.3195C129.629 19.3195 129.837 19.3772 130.015 19.4924C130.201 19.6077 130.294 19.7984 130.294 20.0644L128.272 27.7389L125.319 30H116.302L119.174 19.3195ZM124.628 27.1004L125.28 26.6083L126.45 22.2191L121.688 22.2191L120.385 27.1004H124.628ZM137.837 27.1004L139.925 19.3195H143.224L140.617 29.0423C140.581 29.1842 140.51 29.3172 140.404 29.4414C140.306 29.5566 140.191 29.6586 140.058 29.7473C139.925 29.8271 139.783 29.8892 139.632 29.9335C139.49 29.9778 139.349 30 139.207 30H130.136C129.887 30 129.675 29.9379 129.497 29.8138C129.32 29.6896 129.231 29.4946 129.231 29.2286L131.865 19.3195H135.163L133.075 27.1004H137.837Z" fill="#E52A2A"/>
</svg>
