<svg width="522" height="518" viewBox="0 0 522 518" fill="none" xmlns="http://www.w3.org/2000/svg">
<path d="M227.962 439.609H494.459C501.789 439.609 507.732 433.688 507.732 426.385L507.715 56.3737C507.523 46.4644 502.732 40.7812 494.457 40.7812L227.96 41.918C221.372 41.918 215.757 46.7006 214.702 53.2089L214.689 426.385C214.689 433.689 220.632 439.609 227.962 439.609Z" fill="black"/>
<path d="M217.876 440.268H484.409C491.74 440.268 497.684 434.349 497.683 427.048L497.667 57.183C497.475 47.2763 492.683 41.644 484.407 41.644H217.87C214.85 41.644 212.034 42.6499 209.769 44.3663C206.431 46.8949 204.61 50.9283 204.61 55.0894L204.602 427.048C204.601 434.349 210.545 440.268 217.876 440.268Z" fill="white"/>
<path d="M484.409 440.895H217.877C214.164 440.895 210.673 439.455 208.047 436.84C205.42 434.225 203.974 430.747 203.975 427.048L203.983 55.0889C203.983 50.6265 206.005 46.4307 209.391 43.8659C211.852 42.0013 214.784 41.0161 217.87 41.0161H484.408C493.035 41.0161 498.096 46.9043 498.296 57.1707L498.311 427.048C498.311 430.747 496.866 434.225 494.239 436.84C491.614 439.455 488.122 440.895 484.409 440.895ZM217.87 42.2716C215.06 42.2716 212.389 43.1686 210.148 44.8664C207.074 47.195 205.239 51.017 205.239 55.0889L205.23 427.048C205.23 430.41 206.545 433.572 208.933 435.951C211.322 438.329 214.498 439.64 217.877 439.64H484.409C487.788 439.64 490.964 438.329 493.353 435.951C495.742 433.572 497.056 430.411 497.056 427.048L497.04 57.1828C496.854 47.5716 492.368 42.2716 484.408 42.2716H217.87Z" fill="black"/>
<path d="M292.522 73.0657H416.49C419.694 73.0657 422.291 70.4685 422.291 67.2646V38.3016C422.291 35.0978 419.694 32.5005 416.49 32.5005H292.522C289.318 32.5005 286.721 35.0978 286.721 38.3016V67.2646C286.721 70.4685 289.318 73.0657 292.522 73.0657Z" fill="white"/>
<path d="M416.491 73.6936H292.523C288.978 73.6936 286.094 70.8093 286.094 67.2648V38.3014C286.094 34.7568 288.978 31.8726 292.523 31.8726H416.491C420.036 31.8726 422.92 34.7568 422.92 38.3014V67.2648C422.92 70.8093 420.036 73.6936 416.491 73.6936ZM292.523 33.1283C289.67 33.1283 287.35 35.4491 287.35 38.3014V67.2648C287.35 70.1171 289.67 72.4378 292.523 72.4378H416.491C419.343 72.4378 421.664 70.1171 421.664 67.2648V38.3014C421.664 35.4491 419.343 33.1283 416.491 33.1283H292.523Z" fill="black"/>
<path d="M354.022 0.62793C341.203 0.62793 330.861 11.0818 330.861 23.9774V58.9728C330.861 62.1187 333.396 64.6688 336.524 64.6688H371.52C374.647 64.6688 377.182 62.1187 377.182 58.9728V23.9774C377.182 11.0818 366.841 0.62793 354.022 0.62793ZM355.317 32.6087C349.148 33.3909 343.961 28.1723 344.739 21.9674C345.269 17.74 348.663 14.326 352.865 13.7936C359.033 13.012 364.22 18.2297 363.442 24.4343C362.913 28.6621 359.519 32.076 355.317 32.6087Z" fill="white"/>
<path d="M371.521 65.2969H336.525C333.056 65.2969 330.234 62.4598 330.234 58.973V23.9772C330.234 10.7559 340.906 0 354.023 0C367.14 0 377.811 10.7559 377.811 23.9772V58.9727C377.811 62.4599 374.989 65.2969 371.521 65.2969ZM354.022 1.2558C341.598 1.2558 331.49 11.4489 331.49 23.9772V58.9727C331.49 61.7673 333.748 64.0411 336.524 64.0411H371.52C374.297 64.0411 376.555 61.7676 376.555 58.9727V23.9772C376.555 11.4486 366.447 1.2558 354.022 1.2558ZM354.096 33.3144C351.439 33.3144 348.909 32.2789 347.005 30.3775C344.773 28.1481 343.72 25.0549 344.117 21.8898C344.679 17.4027 348.326 13.7366 352.787 13.1713C355.907 12.7751 358.965 13.8157 361.177 16.0251C363.41 18.2539 364.463 21.3477 364.066 24.5128C363.504 28.9998 359.858 32.6666 355.397 33.2324C354.961 33.2872 354.527 33.3144 354.096 33.3144ZM354.084 14.3445C353.707 14.3445 353.326 14.3686 352.945 14.4169C349.044 14.9112 345.855 18.119 345.363 22.045C345.014 24.8227 345.937 27.5359 347.892 29.4887C349.829 31.4221 352.508 32.3337 355.238 31.9862C359.14 31.4913 362.329 28.2827 362.821 24.3567C363.168 21.579 362.246 18.8658 360.29 16.9135C358.625 15.2503 356.411 14.3445 354.084 14.3445Z" fill="black"/>
<path d="M465.24 141.684C465.24 142.797 464.003 145.395 462.023 145.395C460.044 145.395 449.282 145.395 447.302 145.395C445.323 145.395 443.344 144.035 440.56 144.035C437.777 144.035 377.903 144.035 373.017 144.035C368.13 144.035 360.832 144.035 359.069 144.035C357.306 144.035 353.1 142.921 351.244 141.684C349.389 140.447 349.203 140.137 349.203 139.333C349.203 138.529 349.203 135.19 349.203 134.447C349.203 133.705 351.43 132.901 351.43 131.602C351.43 130.303 351.43 126.283 351.43 124.427C351.43 122.572 368.131 110.696 373.45 109.397C378.769 108.098 402.088 107.974 408.335 108.531C414.582 109.088 428.004 115.706 436.478 121.953C445.571 121.953 455.343 124.237 459.611 126.806C463.879 129.375 465.24 133.767 465.24 135.622C465.24 137.478 465.24 141.684 465.24 141.684Z" fill="white"/>
<path d="M379.939 144.663H359.07C358.675 144.663 358.166 144.612 357.557 144.511C357.294 144.467 357.087 144.261 357.041 143.998C356.925 143.319 356.865 142.634 356.865 141.962C356.865 135.374 362.224 130.016 368.812 130.016C375.4 130.016 380.759 135.374 380.759 141.962C380.759 142.686 380.691 143.422 380.556 144.149C380.501 144.447 380.242 144.663 379.939 144.663ZM358.211 143.339C358.551 143.383 358.844 143.407 359.07 143.407H379.404C379.47 142.924 379.504 142.44 379.504 141.962C379.504 136.068 374.707 131.271 368.812 131.271C362.917 131.271 358.121 136.068 358.121 141.962C358.121 142.417 358.151 142.878 358.211 143.339Z" fill="black"/>
<path d="M452.709 146.023H447.303C446.3 146.023 445.339 145.721 444.32 145.4C443.167 145.038 441.974 144.662 440.561 144.662H430.795C430.492 144.662 430.233 144.447 430.178 144.149C430.043 143.421 429.975 142.686 429.975 141.962C429.975 135.374 435.334 130.016 441.922 130.016C448.51 130.016 453.868 135.374 453.868 141.962C453.868 143.196 453.68 144.415 453.308 145.585C453.225 145.846 452.983 146.023 452.709 146.023ZM431.329 143.407H440.56C442.167 143.407 443.511 143.829 444.697 144.203C445.66 144.506 446.493 144.768 447.302 144.768H452.239C452.487 143.855 452.612 142.913 452.612 141.963C452.612 136.068 447.816 131.272 441.921 131.272C436.026 131.272 431.23 136.068 431.23 141.963C431.23 142.44 431.263 142.924 431.329 143.407Z" fill="black"/>
<path d="M458.282 129.263C458.912 129.436 459.463 129.819 459.844 130.349C460.137 130.758 460.444 131.23 460.548 131.54C460.764 132.189 460.548 132.931 459.651 132.931C458.754 132.931 455.228 132.931 454.393 132.931C453.558 132.931 452.012 131.664 451.146 130.643C450.28 129.623 448.981 127.953 449.352 127.736C449.699 127.534 453.901 128.06 458.282 129.263Z" fill="black"/>
<path d="M459.299 139.921C459.609 139.306 460.358 138.808 460.973 138.808H465.241C465.241 140.322 465.241 141.684 465.241 141.684C465.241 141.991 465.144 142.412 464.966 142.859H458.932C458.317 142.859 458.07 142.361 458.38 141.746L459.299 139.921Z" fill="black"/>
<path d="M426.991 121.49C427.531 121.912 428.135 123.067 426.991 123.129C425.846 123.191 403.579 122.325 402.527 122.309C401.476 122.294 401.167 121.675 400.981 120.964C400.796 120.253 399.497 113.758 399.435 113.202C399.373 112.645 399.373 112.119 400.332 112.119C401.29 112.119 408.682 112.398 412.826 113.727C416.97 115.057 422.475 117.964 426.991 121.49Z" fill="black"/>
<path d="M396.681 113.263C396.681 113.263 396.959 120.623 396.959 120.995C396.959 121.366 396.773 121.984 396.062 121.984C395.351 121.984 372.836 121.459 371.909 121.428C370.981 121.397 370.548 121.087 370.703 120.438C370.857 119.788 375.899 113.665 380.043 112.583C384.187 111.5 394.98 112.119 395.506 112.119C396.031 112.119 396.646 112.339 396.681 113.263Z" fill="black"/>
<path d="M367.953 112.054C369.259 112.429 370.856 114.767 369.481 115.547C368.457 116.129 365.183 118.887 363.884 120.093C362.585 121.299 361.719 121.671 360.791 121.671C360.239 121.671 356.115 121.671 354.393 121.671C357.534 119.117 363.849 114.48 367.953 112.054Z" fill="black"/>
<path d="M351.433 131.602C351.433 130.42 351.433 126.991 351.433 124.983C352.743 124.983 356.101 124.983 356.721 124.983C357.494 124.983 357.896 125.277 357.494 126.383C357.092 127.488 355.113 130.458 354.556 130.89C353.999 131.324 353.505 131.664 352.793 131.664C352.479 131.664 351.935 131.664 351.426 131.664C351.427 131.643 351.433 131.623 351.433 131.602Z" fill="black"/>
<path d="M447.303 146.023C446.302 146.023 445.334 145.719 444.321 145.4C443.167 145.038 441.974 144.662 440.561 144.662H359.07C357.109 144.662 352.794 143.471 350.897 142.206C349.043 140.969 348.576 140.502 348.576 139.333V134.447C348.576 133.826 349.119 133.391 349.695 132.929C350.188 132.533 350.803 132.04 350.803 131.602V124.427C350.803 121.819 368.6 109.935 373.301 108.786C378.645 107.482 402.049 107.341 408.391 107.905C413.58 108.368 422.873 112.707 429.781 116.803C434.288 119.476 439.249 121.178 444.526 121.862C450.883 122.685 456.788 124.374 459.935 126.269C464.258 128.87 465.869 133.387 465.869 135.622V141.684C465.869 142.698 465.146 144.368 463.978 145.298C463.203 145.916 462.318 146.145 461.425 145.961L448.085 145.957C447.821 146.003 447.56 146.023 447.303 146.023ZM349.832 134.497V139.334C349.832 139.822 349.832 139.986 351.593 141.161C353.264 142.276 357.351 143.407 359.07 143.407H440.561C442.167 143.407 443.511 143.829 444.698 144.203C445.887 144.577 446.915 144.899 447.914 144.712C447.952 144.705 447.991 144.702 448.029 144.702L461.492 144.706C461.539 144.706 461.586 144.711 461.631 144.722C462.178 144.846 462.702 144.71 463.196 144.317C464.074 143.617 464.613 142.311 464.613 141.684V135.622C464.613 133.967 463.311 129.766 459.288 127.344C456.279 125.533 450.561 123.91 444.365 123.108C438.918 122.401 433.796 120.644 429.141 117.883C420.986 113.048 412.603 109.541 408.28 109.156C401.995 108.596 378.854 108.724 373.6 110.007C368.366 111.285 352.569 122.668 352.053 124.479L352.059 131.603C352.059 132.643 351.184 133.346 350.48 133.91C350.252 134.092 349.915 134.362 349.832 134.497Z" fill="black"/>
<path d="M443.493 151.571C448.804 150.709 452.411 145.705 451.549 140.394C450.687 135.083 445.683 131.477 440.372 132.339C435.061 133.201 431.455 138.205 432.317 143.516C433.178 148.826 438.182 152.433 443.493 151.571Z" fill="black"/>
<path d="M448.304 144.593C449.761 141.075 448.091 137.043 444.574 135.586C441.057 134.129 437.024 135.8 435.568 139.317C434.111 142.834 435.781 146.866 439.298 148.323C442.815 149.78 446.847 148.11 448.304 144.593Z" fill="white"/>
<path d="M371.04 151.41C376.276 150.173 379.519 144.927 378.282 139.69C377.046 134.454 371.799 131.212 366.563 132.448C361.327 133.685 358.084 138.932 359.321 144.168C360.557 149.404 365.804 152.646 371.04 151.41Z" fill="black"/>
<path d="M375.195 144.594C376.652 141.077 374.982 137.045 371.464 135.588C367.947 134.131 363.915 135.802 362.458 139.319C361.001 142.836 362.672 146.868 366.189 148.325C369.706 149.782 373.738 148.112 375.195 144.594Z" fill="white"/>
<path d="M466.401 166.185H348.044C343.826 166.185 340.395 162.753 340.395 158.535V101.386C340.395 97.168 343.826 93.7368 348.044 93.7368H466.401C470.619 93.7368 474.051 97.168 474.051 101.386V158.535C474.051 162.753 470.619 166.185 466.401 166.185ZM348.044 94.9926C344.519 94.9926 341.651 97.8611 341.651 101.386V158.535C341.651 162.061 344.519 164.929 348.044 164.929H466.401C469.927 164.929 472.796 162.061 472.796 158.535V101.386C472.796 97.8608 469.927 94.9926 466.401 94.9926H348.044Z" fill="black"/>
<path d="M304.238 194.356H261.252C258.35 194.356 255.99 191.996 255.99 189.094C255.99 186.193 258.35 183.833 261.252 183.833H302.528C302.875 183.833 303.156 184.113 303.156 184.46C303.156 184.807 302.875 185.088 302.528 185.088H261.252C259.043 185.088 257.246 186.885 257.246 189.094C257.246 191.303 259.043 193.1 261.252 193.1H304.238C304.585 193.1 304.866 193.381 304.866 193.728C304.866 194.075 304.585 194.356 304.238 194.356Z" fill="black"/>
<path d="M421.308 194.356H349.657C349.31 194.356 349.029 194.075 349.029 193.728C349.029 193.381 349.31 193.101 349.657 193.101H421.308C423.516 193.101 425.314 191.304 425.314 189.094C425.314 186.886 423.517 185.089 421.308 185.089H350.191C349.844 185.089 349.563 184.808 349.563 184.461C349.563 184.114 349.844 183.833 350.191 183.833H421.308C424.209 183.833 426.569 186.193 426.569 189.095C426.569 191.995 424.209 194.356 421.308 194.356Z" fill="black"/>
<path d="M421.31 216.169H387.846C384.945 216.169 382.584 213.809 382.584 210.907C382.584 208.006 384.945 205.645 387.846 205.645H421.31C424.211 205.645 426.571 208.006 426.571 210.907C426.571 213.809 424.211 216.169 421.31 216.169ZM387.846 206.901C385.637 206.901 383.84 208.698 383.84 210.907C383.84 213.116 385.637 214.913 387.846 214.913H421.31C423.518 214.913 425.315 213.116 425.315 210.907C425.315 208.698 423.518 206.901 421.31 206.901H387.846Z" fill="black"/>
<path d="M421.309 239.69H261.252C258.35 239.69 255.99 237.33 255.99 234.428C255.99 231.527 258.35 229.167 261.252 229.167H421.309C424.211 229.167 426.571 231.527 426.571 234.428C426.57 237.33 424.21 239.69 421.309 239.69ZM261.252 230.423C259.043 230.423 257.246 232.22 257.246 234.428C257.246 236.638 259.043 238.435 261.252 238.435H421.309C423.518 238.435 425.315 236.638 425.315 234.428C425.315 232.22 423.518 230.423 421.309 230.423H261.252Z" fill="black"/>
<path d="M421.309 261.503H404.62C401.718 261.503 399.357 259.143 399.357 256.241C399.357 253.34 401.718 250.979 404.62 250.979H421.309C424.211 250.979 426.571 253.34 426.571 256.241C426.571 259.143 424.211 261.503 421.309 261.503ZM404.619 252.235C402.41 252.235 400.613 254.033 400.613 256.241C400.613 258.45 402.41 260.247 404.619 260.247H421.309C423.518 260.247 425.315 258.45 425.315 256.241C425.315 254.033 423.518 252.235 421.309 252.235H404.619Z" fill="black"/>
<path d="M421.31 283.849H392.213C389.312 283.849 386.951 281.489 386.951 278.587C386.951 275.686 389.312 273.325 392.213 273.325H421.31C424.212 273.325 426.572 275.686 426.572 278.587C426.572 281.489 424.212 283.849 421.31 283.849ZM392.213 274.581C390.004 274.581 388.207 276.378 388.207 278.588C388.207 280.796 390.004 282.593 392.213 282.593H421.31C423.519 282.593 425.316 280.796 425.316 278.588C425.316 276.378 423.519 274.581 421.31 274.581H392.213Z" fill="black"/>
<path d="M321.661 103.383H262.907C260.005 103.383 257.645 101.023 257.645 98.121C257.645 95.2195 260.005 92.8589 262.907 92.8589H321.661C324.562 92.8589 326.923 95.2195 326.923 98.121C326.923 101.023 324.562 103.383 321.661 103.383ZM262.906 94.115C260.697 94.115 258.9 95.912 258.9 98.1213C258.9 100.33 260.697 102.127 262.906 102.127H321.661C323.87 102.127 325.667 100.33 325.667 98.1213C325.667 95.912 323.87 94.115 321.661 94.115H262.906Z" fill="black"/>
<path d="M321.661 123.02H262.907C260.005 123.02 257.645 120.659 257.645 117.758C257.645 114.856 260.005 112.496 262.907 112.496H321.661C324.562 112.496 326.923 114.856 326.923 117.758C326.923 120.659 324.562 123.02 321.661 123.02ZM262.906 113.752C260.697 113.752 258.9 115.549 258.9 117.758C258.9 119.967 260.697 121.764 262.906 121.764H321.661C323.87 121.764 325.667 119.967 325.667 117.758C325.667 115.549 323.87 113.752 321.661 113.752H262.906Z" fill="black"/>
<path d="M295.118 142.657H262.907C260.005 142.657 257.645 140.296 257.645 137.395C257.645 134.493 260.005 132.133 262.907 132.133H295.118C298.019 132.133 300.38 134.493 300.38 137.395C300.38 140.296 298.019 142.657 295.118 142.657ZM262.907 133.389C260.697 133.389 258.9 135.186 258.9 137.395C258.9 139.604 260.697 141.401 262.907 141.401H295.118C297.327 141.401 299.124 139.604 299.124 137.395C299.124 135.186 297.327 133.389 295.118 133.389H262.907Z" fill="black"/>
<path d="M467.406 215.407H449.133C445.465 215.407 442.482 212.424 442.482 208.756V190.483C442.482 186.816 445.465 183.833 449.133 183.833H467.406C471.074 183.833 474.057 186.816 474.057 190.483V208.756C474.057 212.424 471.073 215.407 467.406 215.407ZM449.133 185.089C446.158 185.089 443.738 187.508 443.738 190.483V208.756C443.738 211.731 446.158 214.151 449.133 214.151H467.406C470.381 214.151 472.801 211.731 472.801 208.756V190.483C472.801 187.508 470.381 185.089 467.406 185.089H449.133Z" fill="black"/>
<path d="M455.77 206.452C455.678 206.452 455.585 206.444 455.493 206.426C454.954 206.325 454.514 205.939 454.344 205.419L451.495 197.99C451.371 197.666 451.532 197.302 451.856 197.179C452.181 197.055 452.543 197.216 452.667 197.54L455.527 204.998C455.576 205.147 455.671 205.181 455.724 205.192C455.773 205.201 455.863 205.204 455.94 205.128L463.81 192.564C463.995 192.27 464.383 192.181 464.676 192.365C464.97 192.549 465.059 192.937 464.875 193.231L456.977 205.839C456.962 205.861 456.947 205.884 456.93 205.904C456.641 206.255 456.214 206.452 455.77 206.452Z" fill="black"/>
<path d="M467.406 260.422H449.133C445.465 260.422 442.482 257.439 442.482 253.772V235.498C442.482 231.831 445.465 228.848 449.133 228.848H467.406C471.074 228.848 474.057 231.831 474.057 235.498V253.772C474.057 257.439 471.073 260.422 467.406 260.422ZM449.133 230.104C446.158 230.104 443.738 232.524 443.738 235.498V253.772C443.738 256.747 446.158 259.167 449.133 259.167H467.406C470.381 259.167 472.801 256.746 472.801 253.772V235.498C472.801 232.524 470.381 230.104 467.406 230.104H449.133Z" fill="black"/>
<path d="M455.673 251.956C455.578 251.956 455.481 251.947 455.385 251.929C454.827 251.824 454.369 251.423 454.192 250.883L451.153 242.959C451.029 242.634 451.191 242.271 451.514 242.147C451.839 242.023 452.202 242.186 452.326 242.508L455.375 250.462C455.436 250.645 455.564 250.685 455.618 250.695C455.666 250.705 455.788 250.713 455.887 250.612L464.283 237.21C464.468 236.916 464.855 236.827 465.149 237.011C465.442 237.195 465.531 237.582 465.347 237.877L456.925 251.322C456.911 251.344 456.895 251.366 456.878 251.387C456.579 251.751 456.135 251.956 455.673 251.956Z" fill="black"/>
<path d="M467.406 305.439H449.133C445.465 305.439 442.482 302.456 442.482 298.789V280.515C442.482 276.848 445.465 273.865 449.133 273.865H467.406C471.074 273.865 474.057 276.848 474.057 280.515V298.789C474.057 302.456 471.073 305.439 467.406 305.439ZM449.133 275.121C446.158 275.121 443.738 277.541 443.738 280.515V298.789C443.738 301.763 446.158 304.183 449.133 304.183H467.406C470.381 304.183 472.801 301.763 472.801 298.789V280.515C472.801 277.541 470.381 275.121 467.406 275.121H449.133Z" fill="black"/>
<path d="M455.652 297.082C455.556 297.082 455.459 297.074 455.362 297.055C454.798 296.949 454.337 296.545 454.159 296L451.077 287.965C450.953 287.641 451.114 287.277 451.438 287.153C451.763 287.03 452.126 287.191 452.249 287.514L455.342 295.579C455.405 295.769 455.538 295.81 455.594 295.821C455.647 295.832 455.772 295.839 455.876 295.733L464.389 282.144C464.574 281.851 464.962 281.762 465.255 281.945C465.549 282.129 465.638 282.516 465.454 282.811L456.914 296.443C456.9 296.466 456.884 296.487 456.867 296.508C456.565 296.876 456.118 297.082 455.652 297.082Z" fill="black"/>
<path d="M213.338 132.206L215.79 142.751C215.96 143.481 216.422 144.109 217.068 144.489L221.838 147.291C222.484 147.67 222.946 148.298 223.116 149.028L224.377 154.45C224.554 155.209 224.397 156.008 223.947 156.645L220.949 160.889C220.499 161.526 220.342 162.325 220.519 163.085L221.375 166.766C221.717 168.236 223.186 169.151 224.656 168.809C226.125 168.467 227.594 169.381 227.936 170.851L228.709 174.176C229.051 175.645 228.137 177.114 226.667 177.456C225.197 177.798 224.283 179.267 224.624 180.736L225.439 184.241C225.62 185.019 226.132 185.678 226.839 186.046L231.283 188.359C231.99 188.727 232.502 189.386 232.683 190.164L234.023 195.925C234.197 196.672 234.048 197.459 233.614 198.091L230.595 202.485C230.161 203.118 230.012 203.904 230.186 204.651L231.349 209.652C231.574 210.618 232.305 211.388 233.26 211.66L242.19 214.211C243.101 214.471 244.082 214.241 244.782 213.603L251.581 207.401C252.312 206.735 252.626 205.726 252.402 204.763L234.389 127.31L213.338 132.206Z" fill="white"/>
<path d="M242.95 214.947C242.64 214.947 242.327 214.904 242.019 214.816L233.089 212.265C231.916 211.93 231.015 210.984 230.739 209.795L229.576 204.794C229.362 203.877 229.546 202.906 230.079 202.13L233.098 197.736C233.431 197.251 233.546 196.642 233.413 196.068L232.073 190.306C231.933 189.706 231.54 189.2 230.994 188.916L226.551 186.603C225.68 186.151 225.052 185.342 224.829 184.384L224.014 180.879C223.81 180.005 223.959 179.104 224.434 178.342C224.908 177.579 225.651 177.048 226.525 176.845C227.656 176.581 228.362 175.448 228.099 174.318L227.326 170.993C227.198 170.446 226.865 169.98 226.388 169.684C225.911 169.386 225.347 169.293 224.799 169.42C223.925 169.624 223.023 169.474 222.262 169C221.5 168.525 220.968 167.782 220.765 166.908L219.908 163.227C219.691 162.294 219.884 161.31 220.437 160.527L223.435 156.283C223.781 155.793 223.902 155.176 223.766 154.591L222.506 149.17C222.375 148.611 222.017 148.123 221.521 147.832L216.751 145.03C215.96 144.566 215.388 143.787 215.18 142.894L212.727 132.349C212.649 132.011 212.859 131.674 213.197 131.595C213.532 131.514 213.872 131.727 213.95 132.065L216.403 142.609C216.533 143.168 216.892 143.657 217.387 143.947L222.158 146.749C222.948 147.213 223.521 147.992 223.728 148.886L224.989 154.307C225.206 155.241 225.014 156.226 224.461 157.008L221.462 161.252C221.116 161.742 220.996 162.358 221.131 162.943L221.988 166.624C222.115 167.171 222.448 167.637 222.925 167.934C223.402 168.231 223.966 168.324 224.514 168.198C225.391 167.993 226.29 168.143 227.052 168.618C227.814 169.092 228.345 169.835 228.548 170.709L229.321 174.034C229.741 175.838 228.615 177.648 226.81 178.068C226.263 178.195 225.797 178.528 225.5 179.005C225.203 179.483 225.109 180.047 225.237 180.594L226.052 184.1C226.191 184.699 226.584 185.206 227.13 185.489L231.574 187.803C232.445 188.255 233.073 189.064 233.296 190.021L234.635 195.783C234.849 196.7 234.665 197.671 234.133 198.447L231.114 202.841C230.78 203.327 230.665 203.935 230.799 204.51L231.961 209.511C232.135 210.255 232.699 210.848 233.433 211.057L242.363 213.608C243.07 213.811 243.816 213.636 244.36 213.14L251.159 206.938C251.721 206.426 251.963 205.648 251.791 204.906L233.778 127.453C233.7 127.115 233.909 126.778 234.247 126.699C234.584 126.617 234.922 126.831 235.001 127.169L253.014 204.622C253.289 205.805 252.902 207.048 252.005 207.866L245.206 214.067C244.576 214.642 243.775 214.947 242.95 214.947Z" fill="black"/>
<path d="M226.515 138.139L241.343 201.898C241.639 203.167 242.907 203.957 244.176 203.662C245.446 203.367 246.236 202.098 245.94 200.829L231.112 137.069C230.817 135.8 229.548 135.01 228.279 135.306C227.01 135.601 226.22 136.869 226.515 138.139Z" fill="black"/>
<path d="M218.501 76.9855L205.383 80.0364C193.271 82.8534 185.4 94.7355 188.217 106.848L192.968 127.275C194.087 132.089 199.227 135.284 204.041 134.164L243.59 124.966C248.403 123.847 251.19 118.808 250.071 113.994L245.32 93.5679C242.503 81.4551 230.614 74.1686 218.501 76.9855ZM226.237 93.7602C226.532 95.0293 225.981 96.4149 224.712 96.7098L208.513 100.477C207.244 100.772 205.723 99.8684 205.428 98.5996L205.045 96.9533C204.302 93.7602 206.553 90.7312 209.746 89.9886L218.978 87.8415C222.171 87.0989 225.111 88.9208 225.854 92.1139L226.237 93.7602Z" fill="white"/>
<path d="M202.095 135.012C200.264 135.012 198.409 134.486 196.788 133.478C194.543 132.082 192.928 129.872 192.357 127.417L187.606 106.991C184.751 94.7164 192.663 82.3504 205.242 79.4257L218.359 76.3745C224.386 74.9717 230.556 75.9558 235.726 79.144C240.909 82.3397 244.533 87.4118 245.932 93.4261L250.683 113.852C251.912 119.141 248.794 124.401 243.732 125.578L204.184 134.775C203.502 134.934 202.8 135.012 202.095 135.012ZM218.643 77.597L205.526 80.6481C199.793 81.9817 194.893 85.4086 191.729 90.2978C188.543 95.2214 187.514 101.049 188.829 106.706L193.58 127.133C194.076 129.266 195.487 131.189 197.451 132.411C199.415 133.632 201.765 134.047 203.9 133.552L243.448 124.355C247.836 123.334 250.533 118.75 249.46 114.137L244.71 93.7105C243.387 88.0248 239.963 83.2312 235.068 80.2126C230.18 77.1997 224.348 76.2722 218.643 77.597ZM208.015 101.162C207.43 101.162 206.823 100.99 206.281 100.663C205.529 100.208 204.995 99.5085 204.817 98.7422L204.434 97.0959C204.04 95.4013 204.385 93.6605 205.405 92.1938C206.389 90.7785 207.881 89.778 209.604 89.3776L218.836 87.2311C222.366 86.4062 225.646 88.4481 226.466 91.9726L226.848 93.6189C227.03 94.3963 226.951 95.1965 226.628 95.8718C226.268 96.6254 225.638 97.1403 224.855 97.3218L208.656 101.09C208.448 101.138 208.233 101.162 208.015 101.162ZM220.412 88.3022C219.992 88.3022 219.56 88.352 219.121 88.4538L209.889 90.6003C208.489 90.9258 207.231 91.7684 206.436 92.9114C205.621 94.0824 205.345 95.4677 205.657 96.8117L206.039 98.458C206.141 98.8963 206.466 99.3078 206.93 99.5886C207.396 99.8699 207.922 99.9717 208.371 99.8668L224.571 96.0991C225.088 95.9784 225.359 95.6142 225.495 95.3303C225.693 94.9171 225.74 94.3971 225.626 93.9034L225.243 92.2571C224.676 89.8221 222.741 88.3022 220.412 88.3022Z" fill="black"/>
<path d="M196.795 84.0022C191.755 78.5531 188.891 71.2827 188.891 63.8447C188.891 46.8845 203.324 33.2322 220.553 34.5253C234.929 35.6044 246.535 47.2105 247.614 61.5867C248.907 78.8156 235.255 93.2489 218.295 93.2489C214.786 93.2489 211.353 92.637 208.09 91.4298C208.09 91.4298 207.901 90.6103 209.744 89.9888L218.667 87.9138L222.523 86.9063C234.424 84.7399 242.835 73.8201 241.631 61.4909C240.524 50.161 231.213 41.1747 219.853 40.4364C206.22 39.5502 194.844 50.3898 194.844 63.8365C194.844 70.2489 197.576 76.5652 202.187 81.0246L201.986 81.1037C200.134 81.8327 198.388 82.808 196.795 84.0022Z" fill="white"/>
<path d="M222.826 87.4772C222.532 87.4772 222.27 87.2694 222.211 86.9697C222.145 86.6295 222.367 86.2995 222.707 86.2333C233.376 84.1479 241.12 74.7287 241.12 63.8368C241.12 51.252 230.882 41.0136 218.297 41.0136C205.713 41.0136 195.475 51.252 195.475 63.8368C195.475 68.8965 197.082 73.6742 200.123 77.6523C200.334 77.9277 200.281 78.3219 200.006 78.5323C199.731 78.7432 199.337 78.6912 199.126 78.4152C195.916 74.2163 194.219 69.175 194.219 63.8368C194.219 50.5598 205.02 39.7578 218.297 39.7578C231.575 39.7578 242.376 50.5598 242.376 63.8368C242.376 75.3284 234.205 85.2657 222.947 87.4656C222.907 87.4736 222.866 87.4772 222.826 87.4772Z" fill="black"/>
<path d="M218.296 93.8774C216.118 93.8774 213.947 93.6438 211.843 93.182C211.504 93.108 211.29 92.7732 211.364 92.4347C211.438 92.0951 211.771 91.881 212.112 91.9559C214.127 92.3979 216.207 92.6219 218.296 92.6219C234.163 92.6219 247.072 79.7127 247.072 63.8454C247.072 47.9782 234.163 35.069 218.296 35.069C202.429 35.069 189.519 47.9782 189.519 63.8454C189.519 70.2254 191.559 76.2629 195.419 81.3061C195.63 81.5815 195.577 81.9752 195.302 82.1861C195.028 82.3971 194.633 82.345 194.422 82.069C190.393 76.8052 188.264 70.5039 188.264 63.8457C188.264 47.2857 201.736 33.8135 218.296 33.8135C234.856 33.8135 248.328 47.2857 248.328 63.8457C248.328 80.4052 234.856 93.8774 218.296 93.8774Z" fill="black"/>
<path d="M518.47 419.533L516.369 424.575C513.423 431.646 507.573 437.105 500.316 439.556L470.718 449.55H40.5442L14.5879 441.591C7.59713 439.448 2.60561 433.278 1.96852 425.994L0.876162 413.501C0.723182 411.555 1.09164 409.604 1.94391 407.848C2.99527 405.682 3.36909 403.249 3.01676 400.867L0.708766 385.265C0.245866 382.136 1.87859 379.071 4.73347 377.709L10.6562 374.885C43.2308 359.351 78.1106 349.206 113.935 344.845L128.991 343.012L146.141 333.79C241.911 282.289 355.346 274.99 456.926 313.791L519.738 337.783L516.328 367.637L520.299 388.122C521.014 391.81 521.374 395.559 521.374 399.316V405.013C521.373 409.998 520.387 414.932 518.47 419.533Z" fill="white"/>
<path d="M453.741 327.471C454.91 326.858 454.805 325.152 453.572 324.681L437.929 318.711C348.116 284.435 226.527 285.758 140.434 351.769L350.313 344.5C374.677 343.656 398.982 341.56 423.13 338.218C435.369 336.519 448.135 330.412 453.741 327.471Z" fill="white"/>
<path d="M140.434 352.396C140.17 352.396 139.933 352.231 139.843 351.981C139.751 351.724 139.836 351.436 140.052 351.27C180.324 320.393 231.392 301.629 287.736 297.006C338.2 292.869 391.621 300.366 438.153 318.124L453.796 324.094C454.601 324.402 455.133 325.127 455.184 325.988C455.235 326.846 454.794 327.627 454.033 328.027C447.705 331.346 435.286 337.164 423.217 338.84C399.147 342.171 374.626 344.286 350.335 345.127L140.456 352.396C140.449 352.396 140.442 352.396 140.434 352.396ZM314.151 297.03C256.37 297.03 194.729 311.584 142.387 351.073L350.292 343.872C374.539 343.032 399.017 340.921 423.045 337.596C435.369 335.885 448.414 329.556 453.45 326.915C453.773 326.745 453.953 326.426 453.931 326.062C453.909 325.696 453.692 325.399 453.349 325.268L437.706 319.298C403.322 306.176 359.948 297.03 314.151 297.03Z" fill="black"/>
<path d="M481.723 363.166C481.723 363.166 473.847 370.279 516.316 367.801L519.745 337.736C519.745 337.736 497.076 350.175 481.723 363.166Z" fill="white"/>
<path d="M500.547 368.955C488.395 368.955 481.729 367.685 480.671 365.157C480.218 364.076 480.854 363.104 481.301 362.701C481.305 362.697 481.311 362.692 481.316 362.688C496.541 349.805 519.213 337.311 519.44 337.185C519.646 337.073 519.898 337.084 520.093 337.215C520.287 337.345 520.393 337.574 520.366 337.807L516.937 367.873C516.903 368.176 516.655 368.411 516.351 368.428C510.332 368.78 505.06 368.955 500.547 368.955ZM482.139 363.635C482.076 363.697 481.614 364.171 481.833 364.68C482.272 365.704 486.024 368.9 515.75 367.205L518.98 338.881C514.319 341.51 495.384 352.432 482.139 363.635Z" fill="black"/>
<path d="M484.258 366.843C488.285 368.09 497.201 368.917 516.311 367.802L517.384 358.392C517.384 358.392 519.305 346.064 508.474 350.713C496.466 355.867 484.258 366.843 484.258 366.843Z" fill="black"/>
<path d="M43.188 436.104L431.63 428.716L518.846 418.591C518.724 418.906 518.599 419.22 518.469 419.532L516.368 424.574C513.422 431.646 507.572 437.1 500.314 439.551L481.628 445.858C474.402 448.297 466.826 449.541 459.2 449.541H46.6545C42.6027 449.541 38.5731 448.937 34.6991 447.75L14.5866 441.586C9.49413 440.025 5.46263 436.338 3.40234 431.623L43.188 436.104Z" fill="white"/>
<path d="M459.201 450.169H46.6554C42.5388 450.169 38.4544 449.557 34.5162 448.35L14.4031 442.187C9.21536 440.595 4.99609 436.837 2.82807 431.875C2.73787 431.669 2.76502 431.431 2.89792 431.251C3.0311 431.071 3.24856 430.977 3.47365 430.999L43.218 435.476L431.62 428.088L518.774 417.968C518.989 417.939 519.208 418.034 519.343 418.207C519.477 418.381 519.511 418.613 519.433 418.817C519.309 419.138 519.181 419.456 519.049 419.774L516.948 424.817C513.935 432.051 507.945 437.638 500.516 440.147L481.829 446.454C474.524 448.919 466.911 450.169 459.201 450.169ZM4.45459 432.374C6.58359 436.503 10.2893 439.611 14.7707 440.986L34.8838 447.15C38.7024 448.32 42.6629 448.913 46.6551 448.913H459.201C466.774 448.913 474.252 447.685 481.427 445.263L500.114 438.956C507.201 436.563 512.914 431.233 515.789 424.333L517.87 419.337L431.704 429.339L43.2002 436.732C43.1762 436.732 43.1456 436.731 43.1179 436.728L4.45459 432.374Z" fill="black"/>
<path d="M55.2521 372.043C55.7082 371.71 55.5255 370.99 54.9651 370.918C51.9637 370.532 44.9212 369.83 37.2623 370.496C29.414 371.178 17.6051 376.982 12.641 379.585C11.3122 380.282 10.7339 381.874 11.3009 383.263L11.6343 384.08C12.2977 385.706 13.8792 386.769 15.6355 386.769H26.2231C31.9999 386.769 37.6268 384.931 42.2898 381.521L55.2521 372.043Z" fill="white"/>
<path d="M12.7441 379.531C17.7673 376.901 29.4674 371.173 37.2612 370.496C40.3762 370.225 43.3894 370.18 46.0701 370.249L36.6591 376.877C32.9941 379.458 28.7548 381.106 24.309 381.68L17.5024 382.559C16.231 382.723 14.9645 382.222 14.1487 381.233L12.7441 379.531Z" fill="black"/>
<path d="M26.2221 387.397H15.6342C13.6138 387.397 11.8156 386.188 11.0521 384.317L10.7168 383.495C10.0245 381.799 10.7261 379.879 12.3489 379.028L12.4533 378.974C17.242 376.467 29.2401 370.562 37.2067 369.87C45.0067 369.192 52.2437 369.936 54.9929 370.288C55.5134 370.354 55.9339 370.725 56.0651 371.234C56.1958 371.741 56.0069 372.269 55.5838 372.578L42.6591 382.028C37.8554 385.54 32.1713 387.397 26.2221 387.397ZM13.0355 380.086L12.9312 380.141C11.8852 380.69 11.4327 381.927 11.879 383.021L12.2143 383.842C12.7838 385.238 14.1262 386.141 15.6339 386.141H26.2218C31.9033 386.141 37.3308 384.368 41.9185 381.014L54.843 371.563C52.1236 371.187 44.9929 370.453 37.3156 371.12C29.5752 371.794 17.7575 377.615 13.0355 380.086Z" fill="black"/>
<path d="M261.943 360.644L300.262 359.456C304.334 359.33 308.294 358.087 311.708 355.864L313.912 354.428L275.415 355.582C270.487 355.73 265.749 357.51 261.943 360.644Z" fill="white"/>
<path d="M261.944 361.271C261.684 361.271 261.449 361.11 261.357 360.865C261.262 360.613 261.338 360.329 261.545 360.159C265.438 356.953 270.357 355.105 275.396 354.954L313.894 353.8C314.193 353.798 314.428 353.971 314.512 354.24C314.596 354.509 314.491 354.801 314.256 354.954L312.052 356.389C308.54 358.676 304.47 359.954 300.283 360.083L261.964 361.271C261.957 361.271 261.95 361.271 261.944 361.271ZM311.696 355.123L275.434 356.21C271.324 356.332 267.3 357.649 263.91 359.954L300.243 358.828C304.201 358.705 308.047 357.498 311.366 355.337L311.696 355.123Z" fill="black"/>
<path d="M18.4246 427.409C18.2694 427.409 18.1125 427.398 17.955 427.375C14.8832 426.924 7.60997 424.68 6.42176 413.609C6.17518 411.314 7.51129 409.087 9.6697 408.193C12.1621 407.161 17.8288 406.702 22.1442 406.498C23.0751 406.455 23.9879 406.817 24.6366 407.493C25.2743 408.158 25.5932 409.062 25.5115 409.974C24.9578 416.178 22.6911 422.323 21.3892 425.435C20.8822 426.644 19.7042 427.409 18.4246 427.409ZM22.2967 407.75C22.2653 407.75 22.2342 407.751 22.2028 407.753C18.7521 407.915 12.5972 408.339 10.1501 409.353C8.50269 410.035 7.48301 411.731 7.66992 413.475C8.72523 423.306 14.6813 425.625 18.1376 426.133C19.0204 426.264 19.8846 425.777 20.231 424.95C21.5046 421.906 23.7216 415.898 24.2605 409.862C24.3109 409.304 24.122 408.771 23.7295 408.362C23.3545 407.97 22.8362 407.75 22.2967 407.75Z" fill="black"/>
<path d="M17.4688 426.655C17.667 426.694 17.8576 426.726 18.0391 426.753C19.2129 426.926 20.3528 426.287 20.8111 425.192C22.0194 422.306 24.3339 416.119 24.8879 409.918C25.027 408.361 23.7336 407.051 22.1724 407.125C21.1683 407.173 19.9738 407.24 18.718 407.335L18.7245 407.388C19.4951 413.546 19.1382 419.793 17.6715 425.823L17.4688 426.655Z" fill="black"/>
<path d="M144.812 427.036C144.812 396.701 120.221 372.11 89.8866 372.11C59.5518 372.11 34.9609 396.701 34.9609 427.036C34.9609 434.953 36.6392 442.478 39.6544 449.278L40.5429 449.55H140C143.091 442.679 144.812 435.059 144.812 427.036Z" fill="white"/>
<path d="M140 450.178H40.5431C40.4806 450.178 40.4187 450.169 40.3593 450.15L39.4709 449.878C39.2967 449.824 39.1544 449.698 39.0809 449.532C35.9311 442.428 34.334 434.859 34.334 427.036C34.334 396.404 59.2548 371.482 89.8871 371.482C120.519 371.482 145.441 396.404 145.441 427.036C145.441 434.967 143.803 442.629 140.573 449.808C140.471 450.033 140.247 450.178 140 450.178ZM40.637 448.922H139.593C142.64 442.013 144.185 434.652 144.185 427.036C144.185 397.096 119.827 372.738 89.8871 372.738C59.9476 372.738 35.5895 397.096 35.5895 427.036C35.5895 434.587 37.1114 441.895 40.1133 448.762L40.637 448.922Z" fill="black"/>
<path d="M475.345 427.037C475.345 396.69 450.744 372.089 420.397 372.089C390.05 372.089 365.449 396.69 365.449 427.037C365.449 435.059 367.169 442.68 370.26 449.55H470.535C473.625 442.68 475.345 435.059 475.345 427.037Z" fill="white"/>
<path d="M470.536 450.179H370.26C370.013 450.179 369.789 450.034 369.688 449.808C366.46 442.63 364.822 434.969 364.822 427.037C364.822 396.392 389.754 371.461 420.398 371.461C451.043 371.461 475.974 396.392 475.974 427.037C475.974 434.967 474.337 442.629 471.109 449.808C471.007 450.034 470.783 450.179 470.536 450.179ZM370.668 448.923H470.128C473.174 442.013 474.718 434.652 474.718 427.037C474.718 397.084 450.35 372.717 420.398 372.717C390.445 372.717 366.078 397.084 366.078 427.037C366.078 434.653 367.622 442.014 370.668 448.923Z" fill="black"/>
<path d="M161.653 346.005L170.015 335.928C171.191 334.511 172.938 333.69 174.78 333.69H182.224C185.381 333.69 188.032 336.065 188.379 339.203L188.935 344.239C189.085 345.602 188.779 346.977 188.064 348.147C186.955 349.962 184.992 351.081 182.866 351.11C174.886 351.22 155.734 351.42 156.149 350.797C156.563 350.177 159.476 347.88 160.689 346.938C161.043 346.662 161.366 346.35 161.653 346.005Z" fill="white"/>
<path d="M188.937 344.239L188.381 339.203C188.034 336.065 185.383 333.69 182.225 333.69H174.782C172.94 333.69 171.193 334.511 170.016 335.928L161.654 346.005C161.654 346.005 177.291 344.011 188.937 344.239Z" fill="white"/>
<path d="M161.655 346.632C161.428 346.632 161.216 346.509 161.105 346.307C160.981 346.081 161.007 345.802 161.172 345.604L169.535 335.528C170.834 333.961 172.747 333.063 174.783 333.063H182.226C185.709 333.063 188.624 335.673 189.006 339.135L189.562 344.171C189.582 344.35 189.523 344.529 189.402 344.663C189.279 344.796 189.099 344.861 188.926 344.867C177.467 344.645 161.891 346.608 161.734 346.628C161.708 346.63 161.682 346.632 161.655 346.632ZM174.783 334.319C173.122 334.319 171.561 335.051 170.501 336.33L163.143 345.195C167.303 344.716 178.922 343.496 188.236 343.6L187.758 339.272C187.446 336.448 185.068 334.319 182.226 334.319H174.783Z" fill="black"/>
<path d="M161.655 346.004L170.017 335.928C171.193 334.51 172.94 333.69 174.782 333.69H182.226C185.383 333.69 188.034 336.065 188.381 339.203L188.937 344.239C189.087 345.602 188.781 346.977 188.066 348.147C186.957 349.962 184.994 351.081 182.868 351.11C174.888 351.22 155.736 351.419 156.151 350.796C156.565 350.176 159.478 347.88 160.691 346.937C161.045 346.662 161.368 346.35 161.655 346.004Z" fill="white"/>
<path d="M167.675 351.866C155.994 351.866 155.794 351.494 155.596 351.132C155.486 350.927 155.499 350.643 155.628 350.449C155.969 349.938 157.542 348.59 160.304 346.442C160.622 346.195 160.913 345.913 161.171 345.603L169.533 335.527C170.833 333.96 172.746 333.062 174.781 333.062H182.225C185.708 333.062 188.623 335.672 189.005 339.134L189.561 344.17C189.725 345.664 189.384 347.192 188.601 348.475C187.372 350.485 185.232 351.706 182.876 351.738C176.37 351.828 171.429 351.866 167.675 351.866ZM157.408 350.419C160.401 350.636 169.714 350.663 182.859 350.482C184.781 350.456 186.527 349.46 187.529 347.82C188.169 346.773 188.447 345.526 188.312 344.307L187.756 339.271C187.444 336.447 185.066 334.318 182.225 334.318H174.781C173.12 334.318 171.559 335.05 170.499 336.329L162.136 346.404C161.821 346.784 161.464 347.13 161.074 347.433C159.264 348.842 158.089 349.814 157.408 350.419Z" fill="black"/>
<path d="M459.541 450.178H47.2554C42.7395 450.178 38.2604 449.507 33.9421 448.182L14.4028 442.191C7.13154 439.962 2.00485 433.625 1.34203 426.048L0.249399 413.555C0.0876526 411.494 0.478155 409.428 1.37822 407.574C2.37811 405.512 2.7296 403.224 2.39423 400.958L0.0862312 385.357C-0.420216 381.933 1.33836 378.632 4.46159 377.143L10.384 374.319C43.0839 358.725 77.8973 348.599 113.857 344.222L128.797 342.404L145.842 333.237C241.849 281.61 355.318 274.308 457.149 313.205L515.879 335.638C518.55 336.658 520.189 339.354 519.865 342.195L516.962 367.613L520.914 388.003C521.635 391.722 522 395.528 522 399.317V405.014C522 410.107 521.007 415.073 519.048 419.774L516.948 424.817C513.933 432.054 507.943 437.643 500.515 440.151L481.506 446.569C474.415 448.964 467.025 450.178 459.541 450.178ZM323.359 289.756C262.306 289.756 201.493 304.736 146.437 334.342L129.287 343.565C129.219 343.601 129.143 343.625 129.066 343.634L114.009 345.468C78.1843 349.828 43.5021 359.916 10.9249 375.451L5.00253 378.275C2.37953 379.526 0.903165 382.298 1.32846 385.172L3.63646 400.774C4.00915 403.291 3.61864 405.832 2.50763 408.121C1.70511 409.775 1.35674 411.618 1.50067 413.451L2.59274 425.938C3.21088 433.003 7.99088 438.911 14.7704 440.99L34.3097 446.981C38.5086 448.269 42.8645 448.922 47.2551 448.922H459.541C466.888 448.922 474.143 447.73 481.104 445.379L500.113 438.96C507.199 436.568 512.912 431.236 515.789 424.333L517.89 419.29C519.784 414.743 520.745 409.939 520.745 405.013V399.315C520.745 395.607 520.387 391.881 519.681 388.241L515.711 367.755C515.699 367.692 515.696 367.628 515.704 367.565L518.617 342.052C518.876 339.781 517.566 337.625 515.431 336.81L456.701 314.377C413.606 297.916 368.417 289.756 323.359 289.756Z" fill="black"/>
<path d="M455.048 461.694C474.189 442.553 474.189 411.518 455.048 392.377C435.907 373.236 404.872 373.236 385.731 392.377C366.589 411.518 366.589 442.553 385.731 461.694C404.872 480.836 435.907 480.836 455.048 461.694Z" fill="black"/>
<path d="M443.7 450.347C456.574 437.473 456.574 416.6 443.7 403.725C430.825 390.851 409.952 390.851 397.078 403.725C384.204 416.6 384.204 437.473 397.078 450.347C409.952 463.221 430.825 463.221 443.7 450.347Z" fill="white"/>
<path d="M420.395 460.63C401.871 460.63 386.801 445.56 386.801 427.036C386.801 408.512 401.871 393.442 420.395 393.442C438.919 393.442 453.99 408.512 453.99 427.036C453.99 445.56 438.919 460.63 420.395 460.63ZM420.395 394.697C402.564 394.697 388.057 409.205 388.057 427.036C388.057 444.867 402.564 459.374 420.395 459.374C438.227 459.374 452.734 444.867 452.734 427.036C452.734 409.205 438.227 394.697 420.395 394.697Z" fill="black"/>
<path d="M420.395 453.491C435.006 453.491 446.85 441.647 446.85 427.036C446.85 412.425 435.006 400.581 420.395 400.581C405.784 400.581 393.939 412.425 393.939 427.036C393.939 441.647 405.784 453.491 420.395 453.491Z" fill="white"/>
<path d="M420.396 454.119C405.462 454.119 393.312 441.969 393.312 427.036C393.312 412.102 405.462 399.953 420.396 399.953C435.33 399.953 447.479 412.102 447.479 427.036C447.479 441.969 435.33 454.119 420.396 454.119ZM420.396 401.208C406.154 401.208 394.568 412.795 394.568 427.036C394.568 441.277 406.154 452.863 420.396 452.863C434.638 452.863 446.224 441.277 446.224 427.036C446.224 412.795 434.638 401.208 420.396 401.208Z" fill="black"/>
<path d="M124.538 461.692C143.68 442.551 143.68 411.517 124.538 392.375C105.397 373.234 74.3625 373.234 55.2211 392.375C36.0797 411.517 36.0797 442.551 55.2211 461.692C74.3625 480.834 105.397 480.834 124.538 461.692Z" fill="black"/>
<path d="M113.19 450.344C126.064 437.47 126.064 416.597 113.19 403.723C100.316 390.849 79.4426 390.849 66.5685 403.723C53.6943 416.597 53.6944 437.47 66.5685 450.344C79.4426 463.218 100.316 463.218 113.19 450.344Z" fill="white"/>
<path d="M89.8837 460.63C71.3598 460.63 56.2891 445.56 56.2891 427.036C56.2891 408.512 71.3598 393.442 89.8837 393.442C108.408 393.442 123.478 408.512 123.478 427.036C123.478 445.56 108.408 460.63 89.8837 460.63ZM89.8837 394.697C72.052 394.697 57.5449 409.205 57.5449 427.036C57.5449 444.867 72.052 459.374 89.8837 459.374C107.715 459.374 122.222 444.867 122.222 427.036C122.222 409.205 107.715 394.697 89.8837 394.697Z" fill="black"/>
<path d="M89.8812 453.491C104.492 453.491 116.337 441.647 116.337 427.036C116.337 412.425 104.492 400.581 89.8812 400.581C75.2703 400.581 63.4258 412.425 63.4258 427.036C63.4258 441.647 75.2703 453.491 89.8812 453.491Z" fill="white"/>
<path d="M89.8817 454.119C74.9485 454.119 62.7988 441.969 62.7988 427.036C62.7988 412.102 74.9485 399.953 89.8817 399.953C104.816 399.953 116.965 412.102 116.965 427.036C116.965 441.969 104.816 454.119 89.8817 454.119ZM89.8817 401.208C75.6407 401.208 64.0546 412.795 64.0546 427.036C64.0546 441.277 75.6407 452.863 89.8817 452.863C104.123 452.863 115.709 441.277 115.709 427.036C115.71 412.795 104.124 401.208 89.8817 401.208Z" fill="black"/>
<path d="M375.985 476.762L375.22 490.863L365.792 492.453L364.953 475.821L375.985 476.762Z" fill="white"/>
<path d="M365.793 493.08C365.651 493.08 365.512 493.032 365.4 492.942C365.26 492.829 365.175 492.663 365.166 492.484L364.327 475.853C364.318 475.672 364.388 475.496 364.518 475.37C364.649 475.244 364.827 475.178 365.008 475.196L376.039 476.136C376.377 476.165 376.631 476.457 376.613 476.796L375.847 490.896C375.832 491.19 375.615 491.432 375.325 491.482L365.898 493.072C365.863 493.077 365.828 493.08 365.793 493.08ZM365.618 476.508L366.385 491.716L374.621 490.326L375.326 477.335L365.618 476.508Z" fill="black"/>
<path d="M365.534 516.296C369.515 516.653 376.024 517.465 383.582 516.027C386.053 515.557 387.583 513.055 386.859 510.645C384.841 503.921 381.303 491.146 376.045 485.409L374.906 488.217L373.124 485.746C372.87 485.339 372.438 485.077 371.959 485.041L368.212 484.757C367.43 484.697 366.732 485.249 366.61 486.024L366.504 487.715L363.99 485.275L363.35 500.183C363.225 503.088 362.895 505.332 362.362 508.19L361.702 511.731C361.514 514.046 363.22 516.089 365.534 516.296Z" fill="white"/>
<path d="M374.504 517.477C371.387 517.477 368.675 517.222 366.539 517.02L365.479 516.922C362.837 516.685 360.862 514.334 361.076 511.68C361.078 511.658 361.081 511.637 361.085 511.615L361.745 508.075C362.27 505.263 362.599 503.065 362.724 500.156L363.364 485.248C363.375 485.001 363.529 484.784 363.759 484.692C363.989 484.601 364.251 484.652 364.428 484.825L365.963 486.315L365.984 485.985C366.163 484.836 367.148 484.04 368.261 484.131L372.008 484.415C372.683 484.466 373.3 484.839 373.658 485.414L374.752 486.929L375.464 485.173C375.545 484.974 375.723 484.829 375.935 484.791C376.147 484.753 376.364 484.826 376.509 484.985C381.506 490.438 384.963 502.065 387.029 509.012L387.462 510.465C387.856 511.78 387.674 513.207 386.96 514.382C386.244 515.562 385.056 516.386 383.7 516.644C380.395 517.273 377.288 517.477 374.504 517.477ZM362.326 511.812C362.185 513.769 363.643 515.497 365.59 515.671L366.657 515.769C370.63 516.145 376.635 516.71 383.466 515.41C384.473 515.218 385.355 514.606 385.887 513.731C386.416 512.859 386.552 511.801 386.259 510.826L385.825 509.37C383.884 502.843 380.697 492.123 376.241 486.599L375.489 488.452C375.403 488.664 375.209 488.812 374.982 488.84C374.753 488.868 374.531 488.768 374.398 488.583L372.616 486.113C372.446 485.842 372.191 485.688 371.913 485.667L368.166 485.383C367.713 485.352 367.303 485.673 367.231 486.122L367.132 487.754C367.117 487.999 366.96 488.212 366.732 488.3C366.503 488.387 366.244 488.336 366.068 488.165L364.558 486.701L363.979 500.21C363.85 503.18 363.502 505.51 362.98 508.306L362.326 511.812Z" fill="black"/>
<path d="M374.106 513.176C368.831 513.176 364.849 512.274 364.59 512.213C364.252 512.135 364.042 511.798 364.12 511.46C364.198 511.122 364.539 510.911 364.873 510.99C364.971 511.013 374.821 513.239 383.982 510.659C384.314 510.567 384.663 510.76 384.757 511.094C384.851 511.428 384.656 511.774 384.322 511.868C380.799 512.86 377.226 513.176 374.106 513.176Z" fill="black"/>
<path d="M369.155 502.732C368.813 502.732 368.533 502.458 368.527 502.115C368.521 501.768 368.798 501.482 369.144 501.476L378.048 501.321C378.387 501.309 378.681 501.591 378.687 501.937C378.693 502.284 378.417 502.57 378.07 502.576L369.166 502.732C369.163 502.732 369.159 502.732 369.155 502.732Z" fill="black"/>
<path d="M331.19 471.533L330.801 492.074L319.389 492.649L317.826 472.207L331.19 471.533Z" fill="white"/>
<path d="M319.389 493.277C319.063 493.277 318.789 493.026 318.764 492.697L317.201 472.255C317.188 472.086 317.244 471.919 317.356 471.792C317.468 471.665 317.627 471.588 317.795 471.58L331.159 470.906C331.338 470.894 331.503 470.961 331.628 471.083C331.753 471.204 331.822 471.372 331.819 471.545L331.43 492.086C331.423 492.416 331.163 492.685 330.834 492.701L319.422 493.277C319.411 493.277 319.401 493.277 319.389 493.277ZM318.502 472.802L319.97 491.992L330.185 491.476L330.551 472.194L318.502 472.802Z" fill="black"/>
<path d="M334.364 503.479C334.49 505.414 333.253 507.181 331.389 507.715C324.905 509.573 310.297 513.718 306.113 514.558C300.683 515.649 293.874 514.312 290.821 511.257C287.769 508.203 296.749 500.089 301.053 497.085C307.447 492.622 313.378 484.138 316.019 483.637C318.66 483.136 324.014 490.601 324.014 490.601L331.958 486.783C331.958 486.783 333.723 493.666 334.364 503.479Z" fill="white"/>
<path d="M302.179 515.562C297.491 515.562 292.781 514.105 290.379 511.701C289.772 511.093 289.506 510.311 289.589 509.374C289.949 505.305 297.226 498.99 300.694 496.569C303.831 494.379 306.827 491.236 309.469 488.463C312.32 485.47 314.381 483.308 315.903 483.02C318.553 482.515 322.804 487.904 324.214 489.808L331.687 486.217C331.858 486.137 332.054 486.135 332.224 486.214C332.394 486.293 332.52 486.445 332.567 486.627C332.585 486.696 334.354 493.679 334.991 503.438C335.136 505.655 333.694 507.707 331.563 508.318C325.356 510.097 310.463 514.325 306.238 515.173C304.926 515.437 303.553 515.562 302.179 515.562ZM316.306 484.238C316.247 484.238 316.19 484.243 316.137 484.253C315.011 484.467 312.761 486.829 310.378 489.33C307.695 492.145 304.653 495.337 301.413 497.599C297.158 500.569 291.117 506.351 290.84 509.485C290.791 510.042 290.93 510.477 291.266 510.813C294.107 513.656 300.575 515.031 305.99 513.943C310.17 513.103 325.024 508.885 331.217 507.112C332.784 506.662 333.845 505.152 333.738 503.52C333.228 495.715 331.989 489.719 331.527 487.687L324.287 491.167C324.01 491.298 323.682 491.213 323.504 490.967C321.452 488.105 317.94 484.238 316.306 484.238Z" fill="black"/>
<path d="M301.82 510.297C298.965 510.297 296.485 509.891 294.744 508.872C294.445 508.697 294.345 508.312 294.519 508.012C294.695 507.713 295.079 507.613 295.379 507.788C303.306 512.431 329.459 502.872 329.722 502.775C330.045 502.655 330.408 502.821 330.528 503.147C330.648 503.472 330.482 503.833 330.156 503.953C329.286 504.274 312.801 510.297 301.82 510.297Z" fill="black"/>
<path d="M315.209 498.737C315.07 498.737 314.93 498.691 314.813 498.596L308.745 493.653C308.476 493.434 308.436 493.039 308.655 492.769C308.873 492.501 309.269 492.46 309.538 492.679L315.607 497.622C315.875 497.841 315.916 498.237 315.697 498.506C315.573 498.658 315.392 498.737 315.209 498.737Z" fill="black"/>
<path d="M372.12 335.69C372.12 335.69 378.883 399.5 381.847 421.496C384.812 443.492 380.425 479.311 380.425 479.311L362.762 479.274C362.762 479.274 360.267 447.488 358.351 430.954C357.881 426.9 356.758 422.954 355.056 419.245C352.38 413.417 348.188 403.379 346.269 393.978C343.332 379.594 334.666 357.077 334.666 357.077C334.666 357.077 334.328 471.662 334.193 480.67C334.193 480.67 320.41 481.981 315.301 479.115C315.301 479.115 304.424 437.889 304.541 415.154C304.658 392.419 300.434 336.162 300.434 336.162L372.12 335.69Z" fill="white"/>
<path d="M327.214 481.603C322.938 481.603 317.787 481.229 314.994 479.662C314.846 479.579 314.738 479.439 314.694 479.275C314.585 478.862 303.798 437.708 303.914 415.151C304.03 392.701 299.851 336.771 299.808 336.209C299.795 336.035 299.855 335.864 299.973 335.736C300.09 335.608 300.257 335.535 300.43 335.533L372.117 335.062C372.118 335.062 372.12 335.062 372.121 335.062C372.442 335.062 372.711 335.304 372.745 335.624C372.813 336.262 379.541 399.677 382.471 421.412C385.412 443.236 381.092 479.028 381.048 479.388C381.009 479.702 380.742 479.939 380.425 479.939C380.425 479.939 380.425 479.939 380.424 479.939L362.762 479.902C362.435 479.901 362.163 479.649 362.137 479.323C362.112 479.005 359.621 447.36 357.727 431.027C357.269 427.071 356.178 423.195 354.485 419.506C352.033 414.163 347.625 403.758 345.654 394.104C343.417 383.146 337.768 367.258 335.284 360.517C335.226 379.694 334.942 472.654 334.821 480.679C334.816 480.999 334.571 481.265 334.252 481.295C333.987 481.32 330.932 481.603 327.214 481.603ZM315.84 478.691C320.302 480.962 331.003 480.292 333.573 480.092C333.711 467.777 334.036 358.201 334.039 357.075C334.039 356.773 334.256 356.514 334.552 356.46C334.85 356.402 335.143 356.569 335.253 356.852C335.339 357.077 343.971 379.582 346.884 393.852C348.83 403.384 353.197 413.688 355.627 418.983C357.375 422.791 358.501 426.795 358.975 430.882C360.729 446.015 362.995 474.257 363.343 478.647L379.867 478.682C380.4 474.067 383.946 441.761 381.226 421.58C378.442 400.928 372.235 342.707 371.556 336.322L301.11 336.785C301.585 343.221 305.279 393.997 305.17 415.157C305.06 436.603 314.913 475.118 315.84 478.691Z" fill="black"/>
<path d="M365.994 425.183C364.984 425.183 363.971 425.012 363.004 424.663C362.679 424.545 362.509 424.185 362.627 423.859C362.744 423.533 363.104 423.362 363.431 423.482C365.652 424.284 368.161 423.993 370.142 422.706C370.432 422.517 370.821 422.6 371.01 422.89C371.199 423.181 371.117 423.57 370.826 423.759C369.379 424.699 367.69 425.183 365.994 425.183Z" fill="black"/>
<path d="M370.064 354.752C370.043 354.752 370.021 354.751 369.998 354.748C366.741 354.407 362.872 352.123 361.784 346.737C361.715 346.397 361.936 346.065 362.275 345.997C362.618 345.929 362.947 346.148 363.015 346.488C363.968 351.209 367.315 353.205 370.13 353.5C370.474 353.535 370.724 353.845 370.688 354.19C370.654 354.512 370.382 354.752 370.064 354.752Z" fill="black"/>
<path d="M324.027 459.871C323.699 459.871 323.424 459.617 323.4 459.286C322.696 449.05 309.923 430.372 309.794 430.184C309.598 429.899 309.67 429.508 309.956 429.311C310.241 429.115 310.633 429.187 310.829 429.473C311.363 430.25 323.925 448.624 324.654 459.2C324.677 459.545 324.416 459.845 324.07 459.869C324.055 459.87 324.041 459.871 324.027 459.871Z" fill="black"/>
<path d="M306.623 244.665C302.757 233.527 297.059 235.05 292.958 238.29C290.01 240.619 288.028 243.974 287.363 247.673C286.815 250.724 285.688 255.17 283.411 259.318C279.149 267.08 263.393 270.203 257.897 270.182C255.499 270.173 249.067 262.477 244.938 263.781C241.971 264.718 247.503 269.425 246.811 269.764C244.243 271.02 241.805 270.75 239.478 270.74C235.701 270.724 232.328 269.702 230.914 269.694C229.125 269.684 228.524 271.517 229.265 273.146C230.325 275.476 232.638 279.005 236.461 280.237C243.296 282.439 254.984 280.378 259.062 279.585C262.168 278.982 298.769 281.254 303.43 265.982C304.399 262.805 308.25 249.352 306.623 244.665Z" fill="white"/>
<path d="M244.302 281.845C241.362 281.845 238.548 281.569 236.269 280.835C231.831 279.405 229.493 275.163 228.694 273.406C228.179 272.276 228.21 271.033 228.772 270.165C229.232 269.456 229.987 269.067 230.899 269.067C230.906 269.067 230.912 269.067 230.918 269.067C231.508 269.07 232.339 269.221 233.391 269.412C234.993 269.704 237.189 270.102 239.48 270.112C239.82 270.113 240.162 270.121 240.507 270.127C242.304 270.164 244.16 270.201 246.053 269.417C245.886 269.181 245.65 268.877 245.458 268.629C244.409 267.277 243.103 265.595 243.505 264.308C243.621 263.937 243.931 263.44 244.75 263.182C247.574 262.285 251.145 264.987 254.011 267.156C255.566 268.334 257.175 269.551 257.9 269.554C257.919 269.554 257.938 269.554 257.956 269.554C263.45 269.554 278.781 266.446 282.861 259.016C285.106 254.928 286.213 250.53 286.746 247.561C287.444 243.681 289.511 240.214 292.569 237.798C295.331 235.614 297.916 234.853 300.254 235.537C303.108 236.37 305.451 239.371 307.217 244.459C308.958 249.474 304.869 263.42 304.031 266.166C299.983 279.433 273.018 279.889 262.867 280.061C261.056 280.091 259.625 280.116 259.183 280.202C255.44 280.929 249.66 281.845 244.302 281.845ZM230.9 270.322C230.413 270.322 230.053 270.499 229.826 270.848C229.5 271.352 229.503 272.153 229.837 272.886C230.567 274.491 232.692 278.363 236.654 279.639C242.819 281.625 253.266 280.072 258.943 278.969C259.494 278.862 260.827 278.839 262.845 278.806C272.746 278.638 299.048 278.192 302.83 265.799C303.331 264.157 307.678 249.616 306.031 244.871C304.405 240.19 302.343 237.455 299.902 236.742C297.978 236.179 295.772 236.866 293.348 238.782C290.531 241.008 288.625 244.205 287.982 247.783C287.432 250.845 286.289 255.383 283.962 259.62C279.571 267.616 263.859 270.809 257.958 270.809C257.937 270.809 257.916 270.809 257.895 270.809C256.751 270.805 255.207 269.636 253.253 268.157C250.617 266.163 247.338 263.681 245.128 264.379C244.762 264.495 244.718 264.636 244.704 264.682C244.497 265.343 245.768 266.98 246.45 267.859C247.213 268.842 247.595 269.335 247.48 269.834C247.43 270.05 247.287 270.23 247.087 270.327C244.755 271.469 242.585 271.426 240.481 271.383C240.144 271.375 239.808 271.368 239.476 271.367C237.073 271.357 234.815 270.947 233.166 270.647C232.214 270.474 231.392 270.324 230.911 270.322C230.907 270.322 230.903 270.322 230.9 270.322Z" fill="black"/>
<path d="M382.805 260.853C382.805 260.853 385.26 223.215 362.895 215.033C341.365 207.156 312.892 206.987 297.52 217.172C289.931 222.2 283.018 252.95 283.018 252.95L295.095 266.608C295.095 266.608 294.394 334.252 298.534 351.892C298.534 351.892 318.614 353.213 326.913 349.452C335.211 345.69 362.815 339.614 376.43 345.057L369.707 259.8L382.805 260.853Z" fill="black"/>
<path d="M357.197 329.014C357.171 329.014 357.145 329.013 357.119 329.01C324.429 324.917 313.812 302.833 313.709 302.61C313.563 302.296 313.7 301.923 314.014 301.777C314.33 301.63 314.702 301.767 314.848 302.081C314.949 302.297 325.307 323.762 357.274 327.764C357.619 327.807 357.862 328.121 357.82 328.464C357.779 328.782 357.509 329.014 357.197 329.014Z" fill="white"/>
<path d="M296.441 289.987L330.49 291.079C331.582 291.114 332.374 290.049 332.026 289.013L318.072 247.431C317.864 246.81 317.291 246.384 316.637 246.363L282.588 245.272C281.496 245.237 280.704 246.302 281.051 247.337L295.006 288.919C295.213 289.54 295.786 289.966 296.441 289.987Z" fill="white"/>
<path d="M330.54 291.707C330.517 291.707 330.493 291.707 330.469 291.706L296.421 290.615C295.509 290.586 294.701 289.985 294.41 289.119L280.456 247.537C280.227 246.856 280.347 246.105 280.776 245.528C281.205 244.951 281.879 244.607 282.608 244.644L316.657 245.735C317.57 245.764 318.378 246.366 318.668 247.231L332.621 288.812C332.85 289.494 332.73 290.245 332.301 290.822C331.887 291.379 331.233 291.707 330.54 291.707ZM282.536 245.899C282.236 245.899 281.964 246.036 281.783 246.278C281.597 246.528 281.547 246.842 281.646 247.137L295.6 288.719C295.725 289.09 296.071 289.347 296.461 289.36L330.509 290.451C330.824 290.463 331.108 290.322 331.293 290.073C331.48 289.822 331.53 289.509 331.43 289.213L317.477 247.631C317.353 247.26 317.007 247.003 316.615 246.99L282.567 245.899C282.557 245.899 282.547 245.899 282.536 245.899Z" fill="black"/>
<path d="M378.984 258.943L360.847 258.125C360.847 258.125 360.711 273.398 359.075 273.671C353.244 274.643 341.035 274.691 333.089 273.732C330.321 273.398 328.13 271.28 327.61 268.542C327.217 266.474 326.097 264.045 323.256 262.297C320.511 260.607 323.218 265.924 320.651 269.347C319.271 271.186 314.904 270.371 308.949 268.992C302.994 267.612 301.482 273.976 308.156 277.822C315.392 281.992 319.989 281.524 322.296 282.012C326.892 282.985 367.53 289.354 373.803 285.945C378.649 283.31 378.984 258.943 378.984 258.943Z" fill="white"/>
<path d="M365.923 287.574C351.423 287.574 324.465 283.113 322.165 282.627C321.705 282.529 321.116 282.47 320.435 282.4C317.732 282.126 313.647 281.713 307.842 278.366C303.635 275.942 302.597 272.609 303.413 270.538C304.019 269 305.828 267.625 309.09 268.38C314.451 269.623 318.983 270.523 320.148 268.971C321.288 267.451 321.271 265.438 321.259 263.969C321.248 262.742 321.241 261.856 321.911 261.478C322.478 261.157 323.138 261.487 323.585 261.763C326.086 263.302 327.691 265.606 328.226 268.426C328.702 270.928 330.686 272.81 333.164 273.109C340.989 274.053 352.958 274.032 358.871 273.069C359.631 272.097 360.161 264.623 360.219 258.12C360.221 257.949 360.292 257.787 360.415 257.67C360.539 257.552 360.707 257.481 360.875 257.498L379.013 258.317C379.352 258.332 379.617 258.614 379.613 258.953C379.578 261.484 379.126 283.766 374.102 286.496C372.686 287.266 369.734 287.574 365.923 287.574ZM307.382 269.43C306.006 269.43 304.981 269.983 304.581 270.998C303.957 272.584 304.906 275.226 308.468 277.279C314.041 280.49 317.965 280.888 320.561 281.151C321.279 281.224 321.899 281.287 322.425 281.398C327.107 282.388 367.491 288.659 373.502 285.392C377.104 283.435 378.2 266.628 378.346 259.543L361.465 258.782C361.444 260.041 361.38 262.943 361.2 265.835C360.732 273.405 359.944 274.163 359.177 274.291C353.204 275.287 340.978 275.317 333.012 274.356C329.99 273.991 327.57 271.702 326.992 268.66C326.518 266.161 325.15 264.2 322.926 262.832C322.758 262.728 322.639 262.671 322.56 262.64C322.506 262.924 322.51 263.51 322.514 263.959C322.527 265.514 322.547 267.864 321.152 269.724C319.529 271.892 315.01 271.041 308.807 269.604C308.302 269.487 307.824 269.43 307.382 269.43Z" fill="black"/>
<path d="M327.216 199.892C329.074 201.43 332.648 203.241 335.297 201.735C337.27 200.613 338.267 197.916 338.044 194.894C338.985 194.924 340.21 194.796 341.048 193.977C342.337 192.716 341.974 190.534 341.849 189.094C341.269 182.449 345.085 181.233 343.911 176.762C342.989 173.249 340.093 171.274 339.551 170.905C336.818 169.04 335.066 169.775 330.581 168.839C323.034 167.263 322.635 164.064 317.726 164.297C317.442 164.31 310.766 164.721 308.732 169.449C307.078 173.295 309.461 177.748 311.809 180.032C314.848 182.99 316.841 181.352 319.866 183.809C325.176 188.122 321.694 195.327 327.216 199.892Z" fill="black"/>
<path d="M311.926 187.295C313.4 185.887 314.96 183.104 315.441 181.123C317.196 173.893 323.762 172.559 324.442 179.592C324.623 181.465 331.475 181.022 330.761 183.035C328.899 188.28 328.782 186.9 331.872 188.643C332.212 188.639 332.552 188.696 332.877 188.829C334.449 189.467 335.097 191.524 334.326 193.424C333.858 194.577 332.972 195.399 331.999 195.73L332.408 203.849C332.562 206.892 334.541 209.541 337.416 210.55L340.213 211.532C340.213 211.532 327.851 220.52 314.415 212.014L316.108 211.15C319.088 209.629 320.939 206.54 320.876 203.194L320.81 201.606C319.941 201.728 319.093 201.711 318.302 201.523C314.619 200.651 313.203 196.53 313.558 191.301L311.957 189.845C311.209 189.165 311.195 187.993 311.926 187.295Z" fill="white"/>
<path d="M326.603 216.275C322.784 216.275 318.48 215.33 314.08 212.545C313.89 212.424 313.779 212.211 313.789 211.986C313.799 211.76 313.93 211.558 314.131 211.455L315.823 210.591C318.57 209.189 320.307 206.29 320.249 203.206L320.211 202.297C319.487 202.338 318.799 202.286 318.158 202.134C314.492 201.266 312.589 197.42 312.915 191.563L311.536 190.31C311.051 189.869 310.768 189.24 310.76 188.585C310.752 187.929 311.019 187.293 311.493 186.841C311.493 186.84 311.493 186.84 311.493 186.84C312.843 185.552 314.372 182.866 314.831 180.976C315.942 176.4 318.85 174.173 321.175 174.336C323.313 174.489 324.768 176.43 325.068 179.532C325.111 179.977 326.903 180.383 327.865 180.602C329.443 180.959 330.806 181.268 331.281 182.13C331.467 182.469 331.492 182.854 331.354 183.246C331.082 184.01 330.848 184.634 330.655 185.148C330.317 186.045 330.027 186.82 330.072 187.009C330.126 187.075 330.477 187.24 330.787 187.387C331.124 187.545 331.536 187.739 332.041 188.018C332.417 188.033 332.778 188.111 333.115 188.248C335.004 189.015 335.809 191.443 334.909 193.66C334.454 194.782 333.644 195.664 332.65 196.142L333.037 203.817C333.178 206.618 334.979 209.029 337.625 209.958L340.423 210.94C340.643 211.017 340.802 211.21 340.836 211.442C340.87 211.672 340.773 211.903 340.584 212.04C340.498 212.103 334.623 216.275 326.603 216.275ZM315.708 212.06C326.05 217.981 335.649 213.506 338.779 211.694L337.209 211.143C334.08 210.045 331.949 207.194 331.782 203.881L331.373 195.763C331.359 195.482 331.532 195.227 331.798 195.136C332.638 194.85 333.367 194.122 333.745 193.188C334.386 191.613 333.89 189.918 332.642 189.411C332.407 189.316 332.144 189.28 331.878 189.271C331.775 189.268 331.66 189.244 331.564 189.19C331.035 188.891 330.601 188.687 330.252 188.522C328.378 187.64 328.59 187.077 329.48 184.707C329.67 184.198 329.902 183.581 330.171 182.825C330.194 182.759 330.186 182.742 330.181 182.736C329.979 182.368 328.541 182.042 327.589 181.826C325.799 181.421 323.949 181.001 323.819 179.652C323.583 177.213 322.562 175.694 321.087 175.589C319.323 175.462 316.988 177.415 316.052 181.272C315.538 183.392 313.881 186.298 312.361 187.748C312.135 187.964 312.013 188.256 312.016 188.569C312.02 188.882 312.15 189.169 312.381 189.38L313.983 190.836C314.124 190.965 314.2 191.152 314.187 191.343C313.823 196.696 315.376 200.185 318.448 200.912C319.135 201.074 319.901 201.1 320.724 200.984C320.899 200.958 321.077 201.01 321.214 201.124C321.35 201.237 321.431 201.403 321.439 201.579L321.505 203.167C321.572 206.743 319.567 210.09 316.395 211.709L315.708 212.06Z" fill="black"/>
<path d="M320.811 202.234C320.519 202.234 320.257 202.029 320.197 201.732C320.127 201.392 320.346 201.061 320.685 200.991C325.31 200.041 327.294 196.287 327.313 196.249C327.473 195.941 327.849 195.819 328.158 195.977C328.466 196.135 328.589 196.512 328.431 196.82C328.342 196.996 326.172 201.146 320.938 202.22C320.896 202.229 320.853 202.234 320.811 202.234Z" fill="black"/>
<path d="M142.617 465.933L148.225 487.196C149.346 491.446 149.642 495.872 149.096 500.234L147.973 509.217L176.297 504.595L172.637 501.899C166.282 497.217 161.794 490.434 159.969 482.755L155.095 462.241L142.617 465.933Z" fill="white"/>
<path d="M147.975 509.845C147.814 509.845 147.657 509.783 147.54 509.669C147.397 509.532 147.328 509.335 147.352 509.139L148.474 500.156C149.012 495.854 148.724 491.547 147.619 487.357L142.011 466.093C141.925 465.765 142.115 465.427 142.44 465.331L154.918 461.639C155.085 461.59 155.263 461.611 155.411 461.698C155.56 461.784 155.667 461.928 155.707 462.095L160.581 482.609C162.368 490.134 166.783 496.805 173.01 501.394L176.67 504.09C176.874 504.24 176.968 504.497 176.908 504.742C176.849 504.988 176.649 505.174 176.399 505.215L148.076 509.837C148.042 509.842 148.008 509.845 147.975 509.845ZM143.381 466.361L148.833 487.036C149.98 491.383 150.278 495.849 149.72 500.311L148.702 508.462L174.725 504.215L172.266 502.404C165.799 497.64 161.216 490.713 159.36 482.9L154.639 463.031L143.381 466.361Z" fill="black"/>
<path d="M145.22 513.609C145.007 509.856 144.955 502.381 147.403 497.693C147.839 496.859 148.844 496.5 149.718 496.85L156.199 499.443C157.205 499.845 158.299 499.104 158.299 498.02V497.578C158.299 496.95 158.791 496.433 159.418 496.4L165.001 496.108C167.084 495.999 169.161 496.392 171.064 497.245C176.837 499.833 189.099 505.946 192.029 512.336C192.695 513.789 191.613 515.448 190.016 515.52C184.955 515.747 172.15 516.148 147.666 515.94C146.364 515.929 145.294 514.91 145.22 513.609Z" fill="white"/>
<path d="M160.814 516.626C156.862 516.626 152.489 516.608 147.659 516.567C146.031 516.553 144.684 515.27 144.592 513.645C144.363 509.627 144.352 502.176 146.844 497.402C147.43 496.281 148.765 495.793 149.949 496.266L156.43 498.859C156.712 498.972 157.02 498.939 157.272 498.769C157.525 498.598 157.669 498.325 157.669 498.02V497.577C157.669 496.616 158.422 495.822 159.383 495.772L164.967 495.48C167.13 495.369 169.328 495.779 171.319 496.672C178.002 499.668 189.653 505.652 192.598 512.073C192.994 512.939 192.933 513.908 192.43 514.732C191.916 515.574 191.024 516.103 190.042 516.146C185.675 516.343 176.628 516.626 160.814 516.626ZM145.845 513.573C145.9 514.54 146.702 515.304 147.67 515.311C171.8 515.517 184.539 515.137 189.986 514.892C190.55 514.867 191.063 514.563 191.359 514.078C191.641 513.616 191.676 513.076 191.456 512.597C188.58 506.324 176.057 500.171 170.806 497.817C168.995 497.005 166.996 496.626 165.032 496.734L159.449 497.026C159.156 497.041 158.925 497.284 158.925 497.577V498.02C158.925 498.737 158.571 499.406 157.976 499.808C157.382 500.21 156.63 500.29 155.963 500.024L149.483 497.432C148.897 497.198 148.244 497.436 147.958 497.983C145.605 502.489 145.624 509.685 145.845 513.573Z" fill="black"/>
<path d="M167.985 512.316C162.9 512.316 156.666 512.197 149.232 511.857C148.885 511.842 148.617 511.548 148.634 511.201C148.65 510.855 148.938 510.583 149.29 510.603C173.761 511.72 185.156 510.439 185.268 510.426C185.625 510.38 185.925 510.633 185.964 510.977C186.005 511.322 185.758 511.633 185.414 511.673C185.335 511.683 179.724 512.316 167.985 512.316Z" fill="black"/>
<path d="M174.354 506.296C174.236 506.296 174.117 506.263 174.01 506.193L164.373 499.872C164.084 499.682 164.003 499.293 164.193 499.003C164.383 498.714 164.771 498.632 165.062 498.823L174.7 505.143C174.989 505.333 175.07 505.722 174.88 506.013C174.76 506.196 174.559 506.296 174.354 506.296Z" fill="black"/>
<path d="M85.2209 469.524L81.7956 493.569H73.127L73.9699 469.921L85.2209 469.524Z" fill="white"/>
<path d="M81.7963 494.197H73.1276C72.9571 494.197 72.7939 494.128 72.6757 494.005C72.5575 493.882 72.4942 493.717 72.5004 493.547L73.3428 469.899C73.3544 469.569 73.6188 469.305 73.9479 469.294L85.1992 468.897C85.3808 468.883 85.564 468.966 85.6884 469.104C85.8123 469.243 85.8694 469.429 85.8428 469.612L82.4179 493.657C82.3737 493.967 82.1091 494.197 81.7963 494.197ZM73.778 492.941H81.2517L84.494 470.178L74.5763 470.528L73.778 492.941Z" fill="black"/>
<path d="M81.4634 515.945C77.9166 516.326 72.9417 517.232 65.3473 516.018C63.1255 515.663 61.7252 513.427 62.3343 511.261C63.9402 505.552 67.3012 495.012 71.557 489.488C71.8655 489.088 72.4961 489.197 72.6595 489.676L72.8108 490.669C72.9016 491.264 73.7083 491.382 73.9656 490.837L74.903 488.853C75.1233 488.486 75.5053 488.245 75.9315 488.206L79.223 488.08C79.9206 488.015 80.5514 488.496 80.673 489.186L80.7864 490.751C80.8305 491.359 81.6404 491.534 81.9311 490.998L83.3498 489.541C83.6371 489.151 84.2563 489.363 84.243 489.848L84.0742 496.096C83.9523 500.61 84.2798 505.125 85.052 509.574L85.4403 511.811C85.6433 513.875 83.5248 515.725 81.4634 515.945Z" fill="white"/>
<path d="M72.8196 517.256C70.6244 517.256 68.1205 517.096 65.2489 516.638C64.0239 516.442 62.9361 515.727 62.2642 514.676C61.5836 513.612 61.3899 512.305 61.7315 511.091C63.3656 505.281 66.7507 494.699 71.0613 489.105C71.3441 488.737 71.8013 488.558 72.2631 488.632C72.7243 488.709 73.1044 489.03 73.2551 489.473C73.2672 489.508 73.276 489.544 73.2814 489.581L73.4329 490.574L74.3367 488.585C74.6887 487.993 75.2529 487.638 75.875 487.58L79.2007 487.452C80.1858 487.361 81.1162 488.072 81.2935 489.076C81.2971 489.097 81.2997 489.119 81.3008 489.14L81.4137 490.705C81.4414 490.655 81.4425 490.601 81.4824 490.56L82.8773 489.127C83.1739 488.76 83.6645 488.619 84.1139 488.772C84.5804 488.932 84.8853 489.371 84.8723 489.864L84.7037 496.113C84.583 500.576 84.909 505.069 85.6725 509.466L86.0605 511.703C86.3082 514.203 83.8715 516.318 81.5319 516.569C81.0837 516.618 80.612 516.674 80.1154 516.734C78.1459 516.97 75.7602 517.256 72.8196 517.256ZM72.0581 489.889C67.8697 495.312 64.5488 505.712 62.9406 511.431C62.6955 512.302 62.8346 513.238 63.3221 514C63.8085 514.76 64.5632 515.256 65.448 515.398C71.9897 516.443 76.6 515.891 79.9661 515.487C80.4683 515.427 80.9448 515.37 81.3984 515.321C83.1182 515.137 84.9859 513.589 84.8174 511.872L84.4354 509.681C83.658 505.202 83.3255 500.625 83.4482 496.078L83.6077 490.177L82.4328 491.384C82.1531 491.813 81.6472 492.028 81.1354 491.916C80.5933 491.8 80.2017 491.349 80.1618 490.795L80.0515 489.267C79.976 488.917 79.6517 488.665 79.2832 488.704L75.9575 488.832C75.7655 488.851 75.5603 488.981 75.4432 489.175L74.5357 491.105C74.3016 491.601 73.7759 491.878 73.2364 491.801C72.6943 491.721 72.2744 491.304 72.1921 490.762L72.0581 489.889Z" fill="black"/>
<path d="M74.0786 512.786C71.9137 512.786 69.3275 512.531 66.4333 511.77C66.0979 511.683 65.8974 511.339 65.9856 511.004C66.0733 510.669 66.4166 510.468 66.752 510.556C74.9221 512.704 80.5951 510.599 80.6514 510.577C80.9741 510.453 81.338 510.615 81.4621 510.94C81.5854 511.264 81.4234 511.626 81.099 511.75C80.9367 511.812 78.3137 512.786 74.0786 512.786Z" fill="black"/>
<path d="M78.0009 503.994H70.0516C69.7046 503.994 69.4238 503.713 69.4238 503.367C69.4238 503.02 69.7046 502.739 70.0516 502.739H78.0009C78.3479 502.739 78.6287 503.02 78.6287 503.367C78.6287 503.713 78.3479 503.994 78.0009 503.994Z" fill="black"/>
<path d="M141.2 311.32C141.2 311.32 152.567 384.739 153.019 402.271C153.471 419.804 160.765 472.856 160.765 472.856C160.765 472.856 151.394 476.334 140.695 473.902C140.695 473.902 105.887 379.953 103.379 351.15C100.872 322.348 110.511 309.163 110.511 309.163L141.2 311.32Z" fill="white"/>
<path d="M130.082 306.75C130.082 306.75 91.5541 424.399 90.9238 472.223C90.9238 472.223 82.4333 474.217 70.2274 472.223C70.2274 472.223 62.401 340.922 84.959 304.138L130.082 306.75Z" fill="white"/>
<path d="M148.65 475.401C146.148 475.401 143.404 475.161 140.556 474.514C140.349 474.467 140.18 474.319 140.106 474.12C139.899 473.559 119.603 418.662 109.016 380.323C97.6698 422.816 91.7952 453.729 91.5512 472.232C91.5475 472.52 91.3476 472.768 91.0668 472.834C90.7156 472.917 82.3147 474.834 70.1257 472.843C69.8356 472.795 69.6176 472.553 69.6003 472.26C69.5364 471.19 63.4008 364.75 78.5719 317.26C78.6773 316.93 79.0288 316.745 79.3611 316.853C79.6911 316.959 79.8738 317.312 79.7677 317.643C65.2029 363.235 70.3827 463.66 70.8256 471.683C80.8954 473.248 88.3898 472.072 90.3036 471.709C90.6542 452.676 96.7706 420.969 108.485 377.451C108.574 377.124 108.907 376.926 109.236 377.004C109.567 377.081 109.775 377.408 109.707 377.741L109.666 377.941C119.656 414.786 139.446 468.696 141.166 473.362C150.077 475.29 158.08 473.061 160.073 472.426C159.32 466.895 152.816 418.729 152.392 402.287C152.11 391.346 147.631 358.94 143.924 333.681C143.873 333.337 144.111 333.019 144.453 332.968C144.802 332.912 145.116 333.155 145.166 333.498C148.878 358.791 153.363 391.251 153.648 402.255C154.093 419.552 161.315 472.24 161.387 472.77C161.428 473.061 161.26 473.341 160.984 473.444C160.697 473.55 155.604 475.401 148.65 475.401Z" fill="black"/>
<path d="M109.019 378.59C108.968 378.59 108.917 378.583 108.865 378.571C108.529 378.486 108.325 378.145 108.41 377.809L113.822 356.327C113.907 355.99 114.248 355.787 114.584 355.872C114.921 355.956 115.124 356.298 115.04 356.634L109.627 378.115C109.556 378.4 109.3 378.59 109.019 378.59Z" fill="black"/>
<path d="M119.124 206.012C116.697 219.948 102.547 234.909 88.3128 232.933C85.9893 232.611 79.7219 231.29 73.1353 223.661C64.0551 230.158 52.484 228.438 46.2441 220.898C38.6188 211.684 39.6594 194.634 50.7656 185.882C41.9666 185.809 39.6014 182.424 38.9024 181.091C34.7824 173.233 45.6624 154.851 55.8162 154.822C59.5641 154.811 64.5367 159.443 74.3294 168.706C84.4431 178.274 84.8738 180.129 87.9348 180.46C96.9332 181.435 99.6238 166.1 111.562 164.404C119.734 163.243 128.861 168.954 129.551 174.346C130.144 178.973 124.169 180.606 120.806 189.85C118.301 196.733 120.239 199.607 119.124 206.012Z" fill="black"/>
<path d="M107.286 159.218C107.982 161.35 107.288 167.39 104.083 168.437C100.877 169.483 96.3734 165.139 95.6775 163.006C94.9816 160.874 97.0161 158.297 100.222 157.251C103.427 156.204 106.59 157.085 107.286 159.218Z" fill="black"/>
<path d="M145.972 312.227C145.972 312.227 149.541 336.061 145.176 340.629C145.176 340.629 130.908 325 130.23 313.711L145.972 312.227Z" fill="white"/>
<path d="M145.177 341.257C145.174 341.257 145.172 341.257 145.169 341.257C144.996 341.256 144.83 341.181 144.713 341.053C144.125 340.408 130.287 325.128 129.605 313.748C129.584 313.41 129.835 313.117 130.172 313.086L145.913 311.601C146.24 311.565 146.544 311.804 146.593 312.133C146.74 313.119 150.156 336.325 145.631 341.063C145.512 341.187 145.348 341.257 145.177 341.257ZM130.907 314.278C131.898 323.969 142.681 336.823 145.143 339.644C147.888 335.224 146.385 319.552 145.437 312.908L130.907 314.278Z" fill="black"/>
<path d="M126.179 312.47C126.179 312.47 121.734 331.699 116.462 336.494C111.189 341.29 96.7879 319.847 88.7722 319.388C80.7564 318.929 71.9355 338.269 71.9355 338.269C71.9355 338.269 74.1697 314.116 80.7685 308.999L126.179 312.47Z" fill="white"/>
<path d="M71.9365 338.897C71.8831 338.897 71.8285 338.891 71.7753 338.877C71.4793 338.797 71.283 338.517 71.3113 338.212C71.4038 337.214 73.6487 313.726 80.3852 308.503C80.5085 308.407 80.6629 308.363 80.8176 308.373L126.227 311.843C126.41 311.858 126.577 311.95 126.685 312.098C126.794 312.245 126.832 312.433 126.791 312.611C126.608 313.404 122.241 332.088 116.885 336.959C113.605 339.942 107.923 334.708 101.907 329.166C97.1291 324.764 92.189 320.213 88.7369 320.015C81.2539 319.614 72.594 338.34 72.508 338.53C72.4036 338.758 72.1774 338.897 71.9365 338.897ZM88.4963 318.752C88.6006 318.752 88.7041 318.755 88.809 318.762C92.7088 318.985 97.8174 323.692 102.758 328.242C108.094 333.159 113.614 338.24 116.04 336.03C120.546 331.932 124.535 316.542 125.397 313.039L80.9708 309.644C76.276 313.604 73.8698 328.005 72.9785 334.771C75.8869 329.272 82.2668 318.752 88.4963 318.752Z" fill="black"/>
<path d="M197.514 197.594L204.849 189.947C206.094 188.649 208.194 190.11 207.41 191.728L205.152 196.39C205.152 196.39 206.694 197.105 207.457 197.154C209.13 197.261 210.749 196.543 211.908 195.332C213.247 193.932 215.414 191.703 216.147 191.155C217.236 190.341 218.641 189.08 220.198 188.954L220.245 188.951C221.871 188.832 222.932 190.623 222.047 191.992L218.981 196.734C216.756 200.175 213.489 202.814 209.658 204.268L203.366 206.655C201.175 207.486 199.704 209.559 199.643 211.902L199.008 236.302L186.131 226.46L191.914 207.763C193.068 204.027 194.974 200.567 197.514 197.594Z" fill="white"/>
<path d="M199.008 236.929C198.873 236.929 198.739 236.885 198.627 236.8L185.75 226.959C185.541 226.799 185.454 226.526 185.532 226.274L191.315 207.576C192.502 203.737 194.428 200.241 197.038 197.186C197.046 197.177 197.054 197.168 197.062 197.159L204.398 189.512C205.166 188.711 206.341 188.595 207.25 189.228C208.162 189.862 208.46 191.003 207.976 192.001L206.005 196.073C206.539 196.288 207.166 196.506 207.499 196.527C208.934 196.62 210.376 196.026 211.455 194.898C213.015 193.266 215.031 191.205 215.773 190.651C215.921 190.54 216.076 190.421 216.236 190.297C217.298 189.475 218.621 188.451 220.148 188.328C221.192 188.26 222.122 188.737 222.628 189.592C223.135 190.448 223.114 191.497 222.575 192.332L219.509 197.074C217.195 200.652 213.866 203.343 209.882 204.854L203.59 207.241C201.628 207.985 200.325 209.821 200.271 211.918L199.636 236.317C199.63 236.553 199.492 236.766 199.279 236.867C199.193 236.909 199.1 236.929 199.008 236.929ZM186.86 226.227L198.413 235.056L199.015 211.886C199.084 209.277 200.704 206.993 203.145 206.068L209.437 203.681C213.168 202.265 216.287 199.745 218.454 196.393L221.52 191.651C221.804 191.212 221.814 190.683 221.548 190.233C221.282 189.785 220.815 189.544 220.291 189.577C219.094 189.673 217.935 190.571 217.004 191.291C216.838 191.419 216.678 191.543 216.524 191.658C216.007 192.044 214.49 193.542 212.362 195.766C211.025 197.162 209.23 197.896 207.418 197.781C206.562 197.726 205.057 197.038 204.889 196.959C204.736 196.888 204.619 196.759 204.562 196.601C204.505 196.442 204.515 196.268 204.588 196.116L206.845 191.455C207.107 190.916 206.855 190.484 206.533 190.259C206.211 190.036 205.719 189.949 205.303 190.382L197.981 198.016C195.489 200.937 193.649 204.279 192.514 207.948L186.86 226.227Z" fill="black"/>
<path d="M183.512 220.49L215.633 245.944L201.316 260.789L174.068 238.091L183.512 220.49Z" fill="white"/>
<path d="M201.316 261.417C201.174 261.417 201.031 261.369 200.915 261.271L173.668 238.574C173.438 238.383 173.375 238.057 173.516 237.794L182.959 220.193C183.047 220.029 183.203 219.913 183.385 219.875C183.567 219.838 183.756 219.882 183.902 219.998L216.023 245.452C216.162 245.562 216.248 245.726 216.26 245.903C216.272 246.08 216.209 246.253 216.085 246.38L201.768 261.225C201.646 261.352 201.481 261.417 201.316 261.417ZM174.865 237.937L201.27 259.933L214.701 246.007L183.711 221.448L174.865 237.937Z" fill="black"/>
<path d="M212.279 257.329L175.392 228.869C175.392 228.869 171.355 235.009 164.74 235.672C159.117 236.236 149.526 224.601 141.955 219.561C132.204 213.146 120.652 210.816 109.413 211.769C109.413 211.769 109.359 211.772 109.256 211.784C107.238 211.961 105.111 212.261 102.874 212.714C87.3496 215.313 49.0154 223.907 41.7504 246.198C36.8497 261.237 42.5792 281.399 43.5336 284.548C43.6018 284.773 43.8526 284.879 44.0638 284.777L78.138 268.324L75.5079 260.412C73.9315 256.606 75.4975 252.225 79.1294 250.28L84.4133 247.452C85.6298 254.107 86.6303 261.108 85.4975 267.043C81.309 288.995 76.5041 296.176 74.1071 314.177C74.1071 314.177 82.4093 312.226 88.438 312.616L145.246 314.789C149.037 314.934 152.326 312.145 152.75 308.374C153.344 303.099 153.357 293.757 151.176 277.365C150.893 275.237 150.714 271.858 150.507 267.725C162.116 274.713 183.311 280.137 212.279 257.329Z" fill="white"/>
<path d="M145.525 315.422C145.424 315.422 145.323 315.42 145.221 315.416L88.4136 313.244C82.5305 312.865 74.332 314.769 74.2497 314.788C74.0509 314.835 73.8383 314.781 73.6845 314.642C73.5318 314.504 73.4571 314.299 73.484 314.094C74.7576 304.529 76.6669 298.14 78.8779 290.742C80.7688 284.414 82.9119 277.242 84.88 266.926C85.9353 261.399 85.0884 254.797 83.9486 248.413L79.4253 250.834C76.0629 252.634 74.6281 256.648 76.0872 260.172L78.7337 268.126C78.8329 268.425 78.6949 268.752 78.4105 268.889L44.336 285.341C44.0699 285.472 43.7603 285.477 43.4905 285.359C43.2213 285.241 43.0177 285.012 42.9326 284.73C41.7738 280.907 36.2419 261.072 41.1525 246.003C48.4939 223.479 86.6892 214.786 102.771 212.094C104.916 211.66 107.087 211.343 109.201 211.158L109.345 211.141C109.373 211.138 109.404 211.138 109.428 211.137C121.539 210.124 132.903 212.854 142.3 219.036C145.037 220.858 148.049 223.544 150.963 226.14C156.061 230.684 161.329 235.403 164.677 235.047C170.906 234.423 174.828 228.582 174.867 228.523C174.963 228.377 175.116 228.278 175.288 228.249C175.463 228.221 175.637 228.264 175.775 228.371L212.662 256.832C212.815 256.95 212.905 257.132 212.907 257.326C212.908 257.52 212.819 257.702 212.667 257.822C199.675 268.052 186.975 273.604 174.92 274.327C166.469 274.835 158.487 272.993 151.192 268.854C151.384 272.593 151.55 275.418 151.798 277.282C153.625 291.017 154.155 301.502 153.373 308.445C152.927 312.411 149.509 315.421 145.525 315.422ZM86.726 311.936C87.3232 311.936 87.9094 311.953 88.4778 311.989L145.269 314.161C148.725 314.294 151.74 311.721 152.124 308.304C152.654 303.6 152.812 294.429 150.553 277.448C150.273 275.348 150.097 272.107 149.879 267.757C149.868 267.525 149.985 267.306 150.184 267.187C150.383 267.067 150.632 267.068 150.83 267.188C163.123 274.587 183.554 278.835 211.255 257.332L175.522 229.762C174.329 231.334 170.52 235.723 164.802 236.297C160.911 236.693 155.672 232.021 150.127 227.078C147.246 224.51 144.267 221.855 141.607 220.083C132.433 214.047 121.314 211.391 109.466 212.394C109.449 212.396 109.433 212.397 109.416 212.397L109.326 212.407C107.243 212.59 105.119 212.9 102.998 213.329C87.1222 215.987 49.4748 224.522 42.347 246.392C37.6614 260.769 42.7522 279.721 44.0504 284.085L77.3676 267.998L74.9114 260.61C73.2199 256.53 74.8987 251.833 78.8332 249.727L84.1168 246.898C84.2927 246.804 84.5042 246.799 84.6858 246.887C84.8662 246.974 84.9943 247.142 85.0305 247.339C86.2673 254.104 87.2545 261.187 86.1141 267.161C84.1335 277.541 81.9808 284.745 80.0814 291.101C77.9555 298.216 76.1107 304.391 74.8512 313.369C76.9036 312.934 82.1159 311.936 86.726 311.936Z" fill="black"/>
<path d="M75.6779 278.354L85.9092 294.28L90.4924 291.172C93.2958 289.271 96.7315 288.542 100.065 289.14C100.065 289.14 104.994 289.795 107.097 291.492C112.171 295.587 107.673 298.135 106.702 298.649C105.137 299.477 102.967 300.247 100.652 299.916C99.2996 299.723 95.7392 300.184 92.523 301.931C90.09 303.252 87.2467 305.951 83.3843 304.904C80.0841 304.009 78.632 302.062 78.632 302.062L65.4141 285.579L75.6779 278.354Z" fill="white"/>
<path d="M85.1229 305.767C84.5152 305.768 83.8818 305.689 83.2209 305.51C79.7519 304.569 78.1944 302.525 78.1293 302.438L64.9252 285.973C64.8166 285.838 64.7688 285.663 64.7934 285.492C64.818 285.32 64.9116 285.166 65.0533 285.067L75.3174 277.84C75.4579 277.741 75.6313 277.705 75.7998 277.737C75.9678 277.77 76.1151 277.87 76.2076 278.014L86.0902 293.399L90.1407 290.652C93.0974 288.648 96.6623 287.891 100.177 288.522C100.358 288.546 105.278 289.216 107.493 291.004C109.354 292.506 110.226 294.016 110.083 295.493C109.947 296.905 108.851 298.223 106.996 299.205C105.468 300.014 103.111 300.9 100.564 300.538C99.4165 300.372 95.9681 300.775 92.8239 302.483C92.35 302.74 91.8526 303.056 91.3266 303.391C89.6252 304.473 87.5901 305.767 85.1229 305.767ZM66.323 285.709L79.1224 301.669C79.1476 301.703 80.523 303.477 83.5492 304.298C86.3648 305.061 88.6414 303.611 90.6525 302.331C91.1977 301.985 91.7121 301.657 92.2239 301.379C95.5453 299.576 99.2047 299.073 100.741 299.295C102.952 299.611 105.043 298.817 106.408 298.095C107.26 297.644 108.706 296.692 108.833 295.373C108.932 294.343 108.216 293.201 106.704 291.981C104.76 290.412 100.031 289.769 99.9832 289.763C96.7655 289.184 93.5286 289.872 90.8454 291.692L86.2622 294.8C86.1211 294.894 85.9489 294.929 85.784 294.895C85.6177 294.861 85.4732 294.762 85.381 294.619L75.5043 279.244L66.323 285.709Z" fill="black"/>
<path d="M75.5188 269.703L79.7332 277.482L54.8243 297.349C54.8243 297.349 50.2897 288.628 48.8945 282.499L75.5188 269.703Z" fill="white"/>
<path d="M54.8252 297.977C54.7816 297.977 54.7381 297.972 54.6951 297.963C54.511 297.924 54.3549 297.805 54.2678 297.638C54.0815 297.28 49.681 288.776 48.2835 282.639C48.2179 282.353 48.3596 282.06 48.6231 281.934L75.2479 269.137C75.5497 268.99 75.9133 269.109 76.0719 269.404L80.2861 277.183C80.4315 277.45 80.3633 277.783 80.126 277.973L55.2163 297.84C55.1048 297.929 54.9663 297.977 54.8252 297.977ZM49.6239 282.846C50.8562 287.795 53.9907 294.283 55.0367 296.377L78.9316 277.319L75.2527 270.529L49.6239 282.846Z" fill="black"/>
<path d="M150.552 268.95C150.224 268.95 149.948 268.696 149.926 268.365C149.816 266.756 149.693 264.999 149.565 263.177C149.209 258.089 148.805 252.321 148.571 248.006C148.553 247.66 148.818 247.364 149.165 247.345C149.503 247.324 149.807 247.593 149.826 247.939C150.058 252.243 150.462 258.006 150.818 263.09C150.946 264.913 151.069 266.671 151.179 268.28C151.202 268.626 150.941 268.925 150.595 268.949C150.581 268.95 150.566 268.95 150.552 268.95Z" fill="black"/>
<path d="M125.887 196.561L123.681 214.895L133.883 219.432C133.883 219.432 118.787 229.692 98.9082 218.319L109.638 213.735L115.171 192.458L125.887 196.561Z" fill="white"/>
<path d="M117.82 224.27C112.317 224.271 105.745 222.953 98.5968 218.864C98.3901 218.746 98.2682 218.521 98.2824 218.283C98.2959 218.045 98.443 217.835 98.6624 217.741L109.109 213.279L114.564 192.3C114.609 192.128 114.726 191.982 114.885 191.901C115.045 191.818 115.23 191.808 115.396 191.872L126.112 195.974C126.382 196.077 126.546 196.349 126.512 196.635L124.361 214.51L134.139 218.858C134.347 218.95 134.489 219.149 134.509 219.376C134.529 219.603 134.425 219.823 134.237 219.951C134.138 220.019 127.705 224.27 117.82 224.27ZM100.336 218.392C116.239 226.914 128.92 221.439 132.51 219.509L123.427 215.469C123.175 215.357 123.026 215.094 123.058 214.821L125.206 196.972L115.603 193.297L110.247 213.894C110.197 214.082 110.064 214.236 109.885 214.313L100.336 218.392Z" fill="black"/>
<path d="M114.923 197.594C114.923 197.594 110.828 199.139 109.748 195.581C108.668 192.023 112.199 192.246 112.199 192.246C112.199 192.246 108.44 184.448 114.285 183.688C120.129 182.929 124.397 180.768 124.397 180.768C124.397 180.768 128.645 188.207 130.01 194.443C130.832 198.204 130.607 201.527 127.767 202.517C119.994 205.226 114.923 197.594 114.923 197.594Z" fill="white"/>
<path d="M124.47 203.723C119.261 203.723 115.68 199.616 114.683 198.325C113.926 198.526 112.381 198.797 111.054 198.142C110.131 197.687 109.49 196.887 109.149 195.763C108.758 194.475 108.86 193.443 109.45 192.697C109.949 192.067 110.69 191.801 111.283 191.692C110.719 190.233 109.79 187.176 110.921 185.087C111.537 183.949 112.642 183.269 114.205 183.066C119.865 182.331 124.073 180.229 124.115 180.208C124.413 180.058 124.778 180.166 124.943 180.457C125.119 180.764 129.256 188.052 130.624 194.309C131.687 199.166 130.796 202.127 127.975 203.11C126.741 203.541 125.569 203.723 124.47 203.723ZM114.924 196.967C115.129 196.967 115.328 197.068 115.447 197.246C115.644 197.541 120.35 204.436 127.562 201.924C129.685 201.184 130.302 198.713 129.398 194.578C128.272 189.432 125.097 183.359 124.134 181.587C122.788 182.195 119.107 183.696 114.367 184.311C113.21 184.462 112.443 184.911 112.025 185.685C111.031 187.521 112.223 190.847 112.766 191.974C112.863 192.175 112.846 192.413 112.721 192.598C112.597 192.782 112.396 192.883 112.161 192.874C111.835 192.853 110.867 192.927 110.433 193.48C110.115 193.884 110.087 194.53 110.351 195.4C110.59 196.186 111 196.714 111.604 197.014C112.91 197.659 114.687 197.013 114.705 197.007C114.776 196.98 114.85 196.967 114.924 196.967Z" fill="black"/>
<path d="M123.902 70.4093C123.74 70.4093 123.578 70.3474 123.456 70.223L121.637 68.383C121.393 68.1364 121.395 67.7385 121.641 67.4951C121.889 67.2516 122.286 67.2527 122.529 67.4999L124.348 69.3399C124.592 69.5865 124.59 69.9843 124.344 70.2278C124.221 70.3485 124.062 70.4093 123.902 70.4093Z" fill="black"/>
<path d="M132.615 79.2242C132.453 79.2242 132.291 79.1617 132.169 79.0379L130.349 77.1973C130.105 76.9508 130.108 76.5529 130.354 76.3094C130.601 76.0648 130.999 76.0685 131.242 76.3142L133.061 78.1548C133.305 78.4014 133.303 78.7992 133.056 79.0427C132.934 79.164 132.775 79.2242 132.615 79.2242Z" fill="black"/>
<path d="M122.083 79.224C121.923 79.224 121.764 79.164 121.641 79.0424C121.395 78.799 121.393 78.4011 121.637 78.1545L123.456 76.3139C123.699 76.0679 124.097 76.0643 124.344 76.3091C124.59 76.5526 124.592 76.9505 124.348 77.1971L122.529 79.0376C122.407 79.1615 122.245 79.224 122.083 79.224Z" fill="black"/>
<path d="M130.796 70.4094C130.636 70.4094 130.477 70.3494 130.354 70.2278C130.108 69.9843 130.106 69.5865 130.35 69.3399L132.169 67.4999C132.412 67.2528 132.809 67.2502 133.057 67.4951C133.303 67.7386 133.305 68.1364 133.061 68.383L131.242 70.223C131.12 70.3474 130.958 70.4094 130.796 70.4094Z" fill="black"/>
<path d="M167.204 134.248C167.203 134.248 167.201 134.248 167.2 134.248C166.854 134.246 166.574 133.964 166.576 133.617L166.591 131.029C166.593 130.684 166.874 130.405 167.219 130.405C167.22 130.405 167.221 130.405 167.222 130.405C167.569 130.407 167.848 130.69 167.846 131.037L167.832 133.624C167.83 133.969 167.549 134.248 167.204 134.248Z" fill="black"/>
<path d="M167.134 146.643C167.132 146.643 167.131 146.643 167.13 146.643C166.784 146.641 166.504 146.358 166.506 146.011L166.521 143.423C166.522 143.078 166.803 142.799 167.148 142.799C167.149 142.799 167.151 142.799 167.152 142.799C167.498 142.801 167.778 143.083 167.776 143.43L167.761 146.018C167.76 146.364 167.479 146.643 167.134 146.643Z" fill="black"/>
<path d="M159.684 139.194C159.339 139.194 159.058 138.915 159.057 138.57C159.055 138.223 159.334 137.94 159.681 137.939L162.269 137.924C162.27 137.924 162.271 137.924 162.273 137.924C162.618 137.924 162.899 138.203 162.9 138.548C162.902 138.895 162.623 139.178 162.276 139.179L159.688 139.194C159.687 139.194 159.686 139.194 159.684 139.194Z" fill="black"/>
<path d="M172.079 139.123C171.734 139.123 171.453 138.844 171.451 138.499C171.449 138.152 171.729 137.869 172.075 137.867L174.663 137.853C175.006 137.87 175.292 138.13 175.295 138.477C175.297 138.824 175.017 139.106 174.671 139.108L172.082 139.123C172.081 139.123 172.08 139.123 172.079 139.123Z" fill="black"/>
<path d="M89.0478 89.2875C86.4947 89.2875 84.418 87.2108 84.418 84.6576C84.418 82.105 86.4947 80.0283 89.0478 80.0283C91.6004 80.0283 93.6771 82.105 93.6771 84.6576C93.6771 87.2108 91.6004 89.2875 89.0478 89.2875ZM89.0478 81.2838C87.1874 81.2838 85.6738 82.7972 85.6738 84.6573C85.6738 86.5177 87.1877 88.0314 89.0478 88.0314C90.9082 88.0314 92.4213 86.5174 92.4213 84.6573C92.4216 82.7972 90.9082 81.2838 89.0478 81.2838Z" fill="black"/>
</svg>
